<svg version="1.1" id="Layer_1" xmlns="http://www.w3.org/2000/svg" xmlns:xlink="http://www.w3.org/1999/xlink" x="0px" y="0px"
	 width="100%" viewBox="0 0 423 285" enable-background="new 0 0 423 285" xml:space="preserve">
<path fill="#000000" opacity="1.000000" stroke="none" 
	d="
M311.000000,286.000000 
	C207.333359,286.000000 104.166702,286.000000 1.000041,286.000000 
	C1.000028,191.000031 1.000028,96.000069 1.000014,1.000080 
	C141.999939,1.000053 282.999878,1.000053 423.999878,1.000027 
	C423.999908,95.999916 423.999908,190.999832 423.999939,285.999878 
	C386.500000,286.000000 349.000000,286.000000 311.000000,286.000000 
M101.718185,35.032116 
	C100.064941,36.030182 98.251823,36.842972 96.810539,38.086666 
	C95.716209,39.030979 94.238609,40.657307 94.409035,41.749660 
	C95.224167,46.974430 96.628822,52.103462 97.667244,57.297844 
	C101.147568,74.706940 104.566238,92.128380 107.998154,109.547142 
	C109.958107,119.494919 111.897942,129.446671 113.986168,140.107941 
	C96.558914,143.540680 79.064751,146.986603 61.570587,150.432526 
	C61.594875,150.637482 61.619164,150.842453 61.643452,151.047424 
	C67.606110,151.047424 73.568764,151.047424 79.805946,151.047424 
	C79.964493,152.798553 80.102913,154.327469 80.229538,155.726074 
	C165.038651,155.726074 249.442215,155.726074 333.822052,155.726074 
	C333.977783,154.032898 334.107605,152.621399 334.272186,150.832031 
	C340.489166,150.832031 346.431213,150.832031 352.373260,150.832031 
	C352.365051,150.694748 352.356842,150.557480 352.348602,150.420197 
	C334.819611,146.951920 317.290619,143.483643 299.801270,140.023209 
	C302.368256,127.597961 304.707001,116.397858 306.992737,105.186935 
	C310.988007,85.591133 314.975739,65.993698 318.890747,46.381802 
	C319.312439,44.269474 320.020050,41.696247 319.226471,39.963634 
	C317.390411,35.954937 310.243225,35.060310 306.674347,37.826023 
	C288.124786,52.201115 269.550415,66.544182 250.827209,81.020149 
	C253.845535,83.347343 256.738831,85.578140 259.804749,87.942047 
	C274.479675,76.767029 289.215607,65.545563 304.852692,53.637848 
	C304.852692,56.576069 305.093811,58.065044 304.816833,59.450436 
	C299.914917,83.969894 294.722992,108.433952 290.089844,133.003540 
	C287.600250,146.205856 288.022491,146.289185 278.017548,145.933350 
	C277.749725,145.923813 277.492401,145.619553 277.000000,145.306305 
	C277.000000,133.634903 277.045715,121.827629 276.938629,110.021729 
	C276.926147,108.640877 276.498230,106.723564 275.542145,105.972458 
	C261.001556,94.549545 246.338409,83.282661 231.709183,71.972488 
	C226.651108,68.061981 221.607483,64.132767 216.173630,59.914242 
	C222.035400,55.264797 227.185471,51.179874 232.452866,47.001892 
	C223.586792,40.001587 215.209290,33.387020 206.922409,26.844017 
	C198.346420,33.727463 190.054199,40.383156 181.855118,46.964081 
	C187.290466,51.427868 192.371887,55.600986 197.762238,60.027817 
	C187.843887,67.676216 178.646286,74.885185 169.260406,81.840103 
	C168.237625,82.597977 165.642426,82.542877 164.599060,81.763611 
	C152.768692,72.927757 141.145538,63.815296 129.370544,54.904217 
	C120.479355,48.175545 111.448944,41.630852 101.718185,35.032116 
M177.453049,210.033813 
	C180.875916,199.124115 184.298782,188.214417 187.721664,177.304733 
	C187.111679,177.068863 186.501694,176.832993 185.891708,176.597122 
	C181.940140,186.121414 180.247787,196.550735 175.990814,206.827744 
	C171.680756,196.409653 167.690414,186.764343 163.268326,176.075470 
	C159.090912,186.376282 155.283981,195.763580 151.225601,205.770859 
	C150.181030,204.454224 149.338394,203.811890 149.065262,202.982101 
	C146.661270,195.678848 143.748474,188.464249 142.250015,180.970718 
	C141.319641,176.317932 139.248260,176.793915 135.513046,177.392059 
	C139.557037,190.783707 143.514542,203.889038 147.472061,216.994354 
	C147.888596,217.120743 148.305145,217.247147 148.721680,217.373535 
	C152.830124,207.560684 156.938568,197.747818 161.498779,186.855927 
	C166.128250,197.824585 170.260559,207.615341 174.392883,217.406097 
	C174.854782,217.235306 175.316666,217.064499 175.778564,216.893692 
	C176.197205,214.845261 176.615845,212.796814 177.453049,210.033813 
M77.969559,206.637878 
	C75.676941,203.895828 73.384323,201.153778 71.162987,198.496979 
	C72.841103,197.829803 74.345268,197.283463 75.807182,196.640976 
	C80.405235,194.620300 82.401985,190.858078 81.899986,186.093399 
	C81.411964,181.461456 77.179939,177.413116 72.480537,177.087616 
	C67.414276,176.736694 62.304901,177.008240 57.243111,177.008240 
	C57.243111,190.633011 57.243111,203.699768 57.243111,216.764801 
	C58.899899,216.764801 60.301987,216.764801 62.002373,216.764801 
	C62.002373,210.766510 62.002373,204.995453 62.002373,198.379501 
	C63.663757,199.219543 65.051735,199.496338 65.743507,200.342377 
	C69.331207,204.730209 73.215500,208.983887 76.070656,213.829773 
	C78.587280,218.101074 81.551491,217.028290 85.671669,216.531448 
	C82.792816,213.076248 80.412033,210.218826 77.969559,206.637878 
M322.899750,214.627258 
	C330.584137,210.104874 333.648621,200.001099 331.456818,190.769089 
	C328.980377,180.338181 317.289764,174.193619 304.932098,176.764175 
	C296.515991,178.514832 291.009827,183.016907 289.389862,190.697449 
	C287.732422,198.555817 288.097839,207.146500 295.390717,212.713226 
	C303.614166,218.990265 312.837708,219.164688 322.899750,214.627258 
M93.460449,210.973984 
	C100.746376,217.690018 108.897865,219.331818 118.454422,216.251144 
	C123.781166,214.534012 127.927063,211.450302 129.825851,206.756073 
	C134.900650,194.210037 131.246735,179.805664 114.901207,176.298187 
	C107.969803,174.810837 95.351669,178.324387 92.227776,183.468704 
	C87.457367,191.324432 86.979286,203.992142 93.460449,210.973984 
M337.000000,207.450836 
	C337.000000,210.648041 337.000000,213.845245 337.000000,217.042450 
	C337.654907,217.004837 338.309784,216.967239 338.964691,216.929626 
	C338.964691,206.756241 338.964691,196.582870 338.964691,185.237854 
	C349.352539,196.715622 358.908905,207.274658 368.462891,217.831085 
	C368.462891,203.936264 368.462891,190.499619 368.462891,177.062958 
	C367.965820,177.053192 367.468750,177.043427 366.971680,177.033661 
	C366.971680,187.026642 366.971680,197.019623 366.971680,207.998474 
	C356.597443,196.646103 347.180511,186.341324 337.000000,175.200943 
	C337.000000,186.539566 337.000000,196.503250 337.000000,207.450836 
M192.000000,200.497879 
	C192.000000,206.003891 192.000000,211.509903 192.000000,217.015915 
	C192.723007,216.988663 193.446030,216.961411 194.169037,216.934174 
	C194.169037,206.967041 194.169037,196.999893 194.169037,185.641907 
	C204.537094,197.152710 213.884689,207.530563 223.353088,218.042542 
	C223.353088,204.003952 223.353088,190.531509 223.353088,177.059052 
	C222.953842,177.061234 222.554611,177.063416 222.155365,177.065598 
	C222.155365,187.220749 222.155365,197.375916 222.155365,208.621552 
	C211.810532,197.190521 202.256302,186.633118 192.000000,175.299911 
	C192.000000,184.223267 192.000000,191.860840 192.000000,200.497879 
M385.509583,195.000000 
	C383.747711,195.000000 381.985840,195.000000 380.271271,195.000000 
	C380.271271,189.370148 380.271271,184.304901 380.271271,178.423538 
	C385.365784,178.423538 390.189056,178.423538 395.012360,178.423538 
	C394.979492,178.048874 394.946625,177.674210 394.913788,177.299545 
	C388.056549,177.299545 381.199341,177.299545 374.000000,177.299545 
	C374.000000,187.555878 373.956299,197.661835 374.012024,207.767242 
	C374.070465,218.366867 372.642731,216.898270 383.279266,216.994308 
	C387.184448,217.029556 391.090271,217.000000 394.995789,217.000000 
	C394.978455,216.347748 394.961121,215.695496 394.943817,215.043243 
	C389.988342,215.043243 385.032867,215.043243 380.332947,215.043243 
	C380.332947,208.569046 380.332947,202.832275 380.332947,196.516556 
	C384.764679,196.516556 388.862213,196.516556 392.959778,196.516556 
	C392.965515,196.011032 392.971252,195.505524 392.976990,195.000000 
	C390.805145,195.000000 388.633301,195.000000 385.509583,195.000000 
M243.929108,214.590927 
	C238.406250,218.138748 233.314728,214.568039 227.849869,213.775024 
	C229.758591,215.571472 231.841385,216.838516 234.098282,217.563980 
	C240.883987,219.745148 249.017792,216.611496 251.375031,211.102478 
	C254.313354,204.235397 251.840775,199.032974 243.738174,194.970520 
	C241.438232,193.817383 239.069000,192.755768 236.923752,191.357330 
	C235.530060,190.448822 233.562469,189.068314 233.477127,187.790726 
	C233.307037,185.244766 233.443924,181.938416 234.922852,180.185257 
	C237.530685,177.093857 241.510376,177.318039 245.271454,178.731934 
	C246.711807,179.273392 248.238388,179.585526 249.725662,180.002182 
	C249.834152,179.533966 249.942642,179.065750 250.051132,178.597534 
	C245.960709,175.062256 240.961456,175.526291 236.106552,176.468628 
	C231.301224,177.401291 228.660370,180.965973 228.091827,185.615952 
	C227.570496,189.879868 229.025909,193.608566 233.204147,195.688934 
	C236.341278,197.250900 239.540131,198.689774 242.666595,200.272141 
	C249.170349,203.563797 249.842636,208.633026 243.929108,214.590927 
M28.523996,183.977020 
	C33.651340,177.348480 40.203236,176.477005 51.521061,180.918167 
	C51.578766,177.863022 47.526203,175.961365 40.701614,176.012970 
	C28.202770,176.107483 17.398195,182.975433 18.869583,200.145416 
	C19.699070,209.824905 28.776978,218.072769 40.078129,217.999817 
	C47.054626,217.954788 51.579655,215.682205 51.452244,212.363602 
	C50.143017,212.933731 48.804157,213.513641 47.467766,214.099182 
	C38.017879,218.239639 28.825708,213.692795 26.016197,206.623779 
	C22.966059,198.949341 23.172020,191.527756 28.523996,183.977020 
M282.217865,177.000168 
	C273.490723,177.000168 264.763611,177.000168 256.036469,177.000168 
	C256.039124,177.643372 256.041779,178.286560 256.044434,178.929764 
	C259.998016,178.929764 263.951599,178.929764 268.221558,178.929764 
	C268.221558,192.075455 268.221558,204.481003 268.221558,217.061798 
	C269.988495,216.966003 271.394165,216.889786 273.148712,216.794647 
	C273.148712,204.031494 273.148712,191.639587 273.148712,178.684845 
	C277.331573,178.684845 281.145569,178.684845 284.959564,178.684845 
	C285.001556,178.343216 285.043549,178.001572 285.085541,177.659943 
	C284.443817,177.440765 283.802063,177.221603 282.217865,177.000168 
M156.906525,236.383224 
	C155.396866,235.868301 153.826889,235.483109 152.388718,234.814453 
	C147.792511,232.677505 143.965286,234.763229 141.031128,237.695145 
	C137.614990,241.108673 136.714828,245.830902 139.191635,250.188705 
	C141.129288,253.597870 144.033203,256.280548 148.638748,256.051483 
	C151.744400,255.897003 155.269440,254.952682 156.950012,259.239014 
	C157.217804,259.922058 159.439316,259.839111 160.757614,260.110291 
	C161.293732,259.891266 161.829849,259.672241 162.365982,259.453217 
	C156.031479,256.137085 158.873734,252.773453 160.398788,248.916687 
	C162.093536,244.630768 161.156082,240.278458 156.906525,236.383224 
M215.189423,255.971313 
	C215.178925,255.212708 215.472855,254.229095 215.106537,253.733459 
	C213.273987,251.253998 211.268372,248.902435 209.152786,246.295395 
	C213.951355,245.264389 215.392685,241.240067 213.717377,237.955811 
	C211.145813,232.914658 205.681702,235.554092 201.001358,234.947708 
	C201.001358,241.529236 200.942947,247.633316 201.075531,253.733261 
	C201.092041,254.493073 202.120621,255.230881 202.680252,255.978882 
	C203.119492,255.271027 203.881805,254.587570 203.937439,253.850754 
	C204.105133,251.629974 203.997940,249.388443 203.997940,245.836121 
	C205.625092,247.569489 206.277283,248.333603 207.001007,249.022537 
	C209.458481,251.361954 211.941223,253.674835 215.189423,255.971313 
M256.002777,247.502533 
	C256.229218,246.945816 256.306885,246.066711 256.705353,245.882828 
	C260.251587,244.246368 260.802673,240.903290 259.716125,238.133011 
	C259.099731,236.561462 255.972824,235.623596 253.808197,235.109909 
	C251.683655,234.605759 249.345886,235.000046 247.290619,235.000046 
	C247.290619,242.438568 247.290619,249.189423 247.290619,256.794037 
	C252.030090,253.854141 248.661484,249.273804 250.616684,246.060043 
	C252.422699,248.258575 254.357010,250.069763 255.603378,252.270554 
	C257.100983,254.914993 258.520508,256.891968 262.419800,255.385925 
	C260.322174,252.763596 258.422211,250.388367 256.002777,247.502533 
M189.414963,248.000000 
	C193.977234,247.177795 193.627991,251.375015 195.269196,253.604752 
	C195.998688,254.595825 197.278976,255.181473 198.309265,255.951141 
	C198.450638,254.741043 199.069153,253.328415 198.655518,252.353882 
	C196.071762,246.266754 193.257355,240.277496 190.075211,233.278961 
	C186.684067,241.103424 183.631699,248.146210 180.579315,255.189011 
	C181.103607,255.406647 181.627899,255.624283 182.152191,255.841919 
	C182.774719,254.243484 183.525253,252.681229 183.989441,251.038086 
	C184.667770,248.636887 186.048126,247.529663 189.414963,248.000000 
M265.935425,255.999115 
	C266.766113,255.999420 267.599396,255.956787 268.427002,256.007324 
	C272.354767,256.247040 275.463165,254.700897 275.840607,250.708725 
	C276.158295,247.348618 274.635773,244.348175 270.518646,243.811996 
	C269.767273,243.714127 268.773224,243.308014 268.422455,242.724701 
	C267.477051,241.152542 266.818542,239.407867 266.046143,237.731674 
	C267.453979,237.154510 268.818726,236.364914 270.283386,236.068069 
	C271.434662,235.834732 272.709229,236.209793 274.793762,236.388901 
	C269.789978,233.387192 265.243256,233.917145 263.401245,237.084473 
	C261.733551,239.952057 263.633514,244.513763 267.124695,245.978500 
	C269.817322,247.108185 273.930634,247.331924 272.564209,251.738373 
	C271.099060,256.463104 267.385834,254.594910 264.221527,253.697342 
	C263.898743,253.605774 263.590576,253.462860 263.275604,253.343781 
	C263.124847,253.576904 262.974091,253.810028 262.823334,254.043152 
	C263.583038,254.691132 264.342743,255.339127 265.935425,255.999115 
M237.559128,255.999985 
	C240.034149,255.999985 242.509155,255.999985 244.984177,255.999985 
	C244.993576,255.400574 245.002975,254.801178 245.012375,254.201767 
	C242.421951,254.084488 239.831543,253.967194 237.223816,253.849121 
	C237.223816,250.752014 237.223816,248.007889 237.223816,245.140228 
	C239.473450,245.023224 241.508163,244.917389 243.542877,244.811554 
	C243.543259,244.606094 243.543640,244.400620 243.544022,244.195145 
	C241.470551,244.075653 239.397079,243.956161 237.192596,243.829117 
	C237.192596,241.187546 237.192596,238.777710 237.192596,236.154099 
	C239.769287,236.038406 242.169067,235.930649 244.568832,235.822891 
	C244.562469,235.629105 244.556091,235.435318 244.549728,235.241531 
	C241.171890,235.241531 237.794052,235.241531 234.001312,235.241531 
	C234.001312,241.450348 233.903503,247.544205 234.117188,253.627106 
	C234.145966,254.446198 235.743134,255.210175 237.559128,255.999985 
M116.355072,244.000000 
	C104.594589,243.500473 92.825752,242.083221 81.082329,243.455811 
	C81.084953,244.024078 81.087585,244.592346 81.090210,245.160614 
	C94.940918,245.160614 108.791634,245.160614 122.642342,245.160614 
	C122.645920,244.773743 122.649506,244.386871 122.653084,244.000000 
	C120.863976,244.000000 119.074875,244.000000 116.355072,244.000000 
M163.000000,248.166733 
	C163.404251,255.443909 169.227829,258.498749 175.232285,254.583344 
	C166.440521,252.996475 166.179611,254.741211 166.003662,242.684723 
	C165.976944,240.853745 166.120819,239.009872 165.940079,237.196457 
	C165.864624,236.439407 165.146667,235.746399 164.720871,235.024277 
	C164.147766,235.765198 163.122513,236.481094 163.079865,237.251358 
	C162.896118,240.570984 163.000519,243.906570 163.000000,248.166733 
M228.321747,236.000534 
	C229.411163,235.899353 230.500565,235.798187 231.589981,235.697021 
	C231.579865,235.544647 231.569733,235.392258 231.559616,235.239883 
	C226.875107,235.239883 222.190598,235.239883 217.506073,235.239883 
	C217.497925,235.425323 217.489761,235.610764 217.481598,235.796204 
	C219.208679,235.920471 220.935760,236.044739 223.000000,236.193268 
	C223.000000,241.613876 222.897186,246.894348 223.073654,252.165466 
	C223.116776,253.453568 224.075043,254.711044 224.612549,255.982590 
	C225.075027,254.635834 225.881577,253.302887 225.936295,251.939774 
	C226.109039,247.637268 225.912094,243.320297 226.064804,239.016266 
	C226.100906,237.998383 226.945740,237.009171 228.321747,236.000534 
M301.651855,246.000000 
	C311.945068,246.000000 322.238281,246.000000 332.964752,246.000000 
	C329.113342,243.562057 299.899719,243.157776 294.643585,246.000000 
	C297.608795,246.000000 299.148407,246.000000 301.651855,246.000000 
M178.997971,249.117477 
	C178.997971,244.410370 178.997971,239.703262 178.997971,234.996155 
	C178.385468,235.022522 177.772964,235.048889 177.160461,235.075272 
	C177.160461,240.990860 177.160461,246.906448 177.160461,253.429260 
	C177.942398,251.972488 178.456573,251.014542 178.997971,249.117477 
z"/>
<path fill="#FFFFFF" opacity="1.000000" stroke="none" 
	d="
M102.099335,35.018196 
	C111.448944,41.630852 120.479355,48.175545 129.370544,54.904217 
	C141.145538,63.815296 152.768692,72.927757 164.599060,81.763611 
	C165.642426,82.542877 168.237625,82.597977 169.260406,81.840103 
	C178.646286,74.885185 187.843887,67.676216 197.762238,60.027817 
	C192.371887,55.600986 187.290466,51.427868 181.855118,46.964081 
	C190.054199,40.383156 198.346420,33.727463 206.922409,26.844017 
	C215.209290,33.387020 223.586792,40.001587 232.452866,47.001892 
	C227.185471,51.179874 222.035400,55.264797 216.173630,59.914242 
	C221.607483,64.132767 226.651108,68.061981 231.709183,71.972488 
	C246.338409,83.282661 261.001556,94.549545 275.542145,105.972458 
	C276.498230,106.723564 276.926147,108.640877 276.938629,110.021729 
	C277.045715,121.827629 277.000000,133.634903 277.000000,145.306305 
	C277.492401,145.619553 277.749725,145.923813 278.017548,145.933350 
	C288.022491,146.289185 287.600250,146.205856 290.089844,133.003540 
	C294.722992,108.433952 299.914917,83.969894 304.816833,59.450436 
	C305.093811,58.065044 304.852692,56.576069 304.852692,53.637848 
	C289.215607,65.545563 274.479675,76.767029 259.804749,87.942047 
	C256.738831,85.578140 253.845535,83.347343 250.827209,81.020149 
	C269.550415,66.544182 288.124786,52.201115 306.674347,37.826023 
	C310.243225,35.060310 317.390411,35.954937 319.226471,39.963634 
	C320.020050,41.696247 319.312439,44.269474 318.890747,46.381802 
	C314.975739,65.993698 310.988007,85.591133 306.992737,105.186935 
	C304.707001,116.397858 302.368256,127.597961 299.801270,140.023209 
	C317.290619,143.483643 334.819611,146.951920 352.348602,150.420197 
	C352.356842,150.557480 352.365051,150.694748 352.373260,150.832031 
	C346.431213,150.832031 340.489166,150.832031 334.272186,150.832031 
	C334.107605,152.621399 333.977783,154.032898 333.822052,155.726074 
	C249.442215,155.726074 165.038651,155.726074 80.229538,155.726074 
	C80.102913,154.327469 79.964493,152.798553 79.805946,151.047424 
	C73.568764,151.047424 67.606110,151.047424 61.643452,151.047424 
	C61.619164,150.842453 61.594875,150.637482 61.570587,150.432526 
	C79.064751,146.986603 96.558914,143.540680 113.986168,140.107941 
	C111.897942,129.446671 109.958107,119.494919 107.998154,109.547142 
	C104.566238,92.128380 101.147568,74.706940 97.667244,57.297844 
	C96.628822,52.103462 95.224167,46.974430 94.409035,41.749660 
	C94.238609,40.657307 95.716209,39.030979 96.810539,38.086666 
	C98.251823,36.842972 100.064941,36.030182 102.099335,35.018196 
M109.197113,53.778801 
	C108.861794,53.647148 108.526482,53.515491 108.191162,53.383835 
	C108.434143,53.947495 108.677124,54.511154 108.994308,55.924873 
	C109.340652,58.664982 109.520164,61.438404 110.059547,64.139969 
	C114.670624,87.235420 119.488274,110.290588 123.947777,133.414948 
	C126.402176,146.142014 126.145493,146.195068 135.898865,145.940628 
	C136.171799,145.933502 136.437668,145.655975 137.000000,145.339584 
	C137.000000,134.539688 137.241013,123.565636 136.877304,112.611656 
	C136.738510,108.431526 137.909302,105.582375 141.215073,103.252747 
	C145.450699,100.267830 149.229919,96.188683 153.900421,94.482590 
	C155.825867,93.779251 159.558228,98.019958 162.466003,100.015930 
	C162.601822,100.109169 162.710876,100.241402 163.246338,100.744019 
	C159.025101,103.887405 154.809708,106.857841 150.815414,110.100609 
	C149.569824,111.111847 148.149796,112.844551 148.122543,114.272049 
	C147.904114,125.717018 148.000427,137.167984 148.000427,148.797699 
	C160.807770,148.797699 173.209518,148.797699 185.999557,148.797699 
	C185.999557,137.148453 186.060364,125.696327 185.912079,114.246918 
	C185.896011,113.006081 184.971481,111.387222 183.957489,110.611382 
	C176.510559,104.913506 168.866425,99.473557 161.414413,93.782135 
	C152.120300,86.683807 143.001282,79.356323 133.711990,72.251572 
	C125.737015,66.152077 117.628876,60.226711 109.197113,53.778801 
M178.923431,92.400391 
	C181.725235,94.609947 184.413910,96.984840 187.351898,98.995392 
	C193.909348,103.482872 198.473984,108.279495 197.265350,117.550568 
	C196.056534,126.823120 197.000000,136.376251 197.000000,145.702255 
	C203.998398,145.702255 210.405899,145.702255 217.000000,145.702255 
	C217.000000,133.592148 216.942291,121.778137 217.067337,109.966057 
	C217.084488,108.347069 217.505142,106.103210 218.600861,105.229317 
	C224.636139,100.415840 230.939255,95.938179 237.889404,90.798943 
	C227.728516,83.227936 218.059341,75.965591 208.279190,68.855896 
	C207.569000,68.339615 205.732941,68.501404 204.960022,69.075081 
	C195.973923,75.744774 187.073303,82.530754 178.239548,89.401016 
	C177.824860,89.723526 178.250656,91.126694 178.923431,92.400391 
M266.000000,133.496872 
	C266.000000,127.348740 266.108734,121.197266 265.919739,115.054955 
	C265.875275,113.609253 265.229614,111.682419 264.172821,110.850845 
	C258.489563,106.378738 252.589264,102.182457 246.916595,98.003448 
	C244.147202,100.094238 241.706131,102.293533 238.942230,103.956146 
	C231.049728,108.703896 226.231339,114.442284 227.766190,124.742882 
	C228.941559,132.630966 228.000000,140.834488 228.000000,148.698929 
	C241.055176,148.698929 253.435791,148.698929 266.000000,148.698929 
	C266.000000,143.764587 266.000000,139.129974 266.000000,133.496872 
M210.043259,50.447014 
	C211.487640,49.346378 212.932022,48.245743 214.698944,46.899338 
	C211.697845,44.557510 209.314362,42.697628 206.936920,40.842449 
	C204.403748,42.892395 202.070847,44.780258 199.295639,47.026066 
	C201.499298,48.751232 203.516815,49.869720 204.898666,51.520363 
	C206.978119,54.004276 208.149307,52.472965 210.043259,50.447014 
z"/>
<path fill="#FFFFFF" opacity="1.000000" stroke="none" 
	d="
M177.243774,210.391083 
	C176.615845,212.796814 176.197205,214.845261 175.778564,216.893692 
	C175.316666,217.064499 174.854782,217.235306 174.392883,217.406097 
	C170.260559,207.615341 166.128250,197.824585 161.498779,186.855927 
	C156.938568,197.747818 152.830124,207.560684 148.721680,217.373535 
	C148.305145,217.247147 147.888596,217.120743 147.472061,216.994354 
	C143.514542,203.889038 139.557037,190.783707 135.513046,177.392059 
	C139.248260,176.793915 141.319641,176.317932 142.250015,180.970718 
	C143.748474,188.464249 146.661270,195.678848 149.065262,202.982101 
	C149.338394,203.811890 150.181030,204.454224 151.225601,205.770859 
	C155.283981,195.763580 159.090912,186.376282 163.268326,176.075470 
	C167.690414,186.764343 171.680756,196.409653 175.990814,206.827744 
	C180.247787,196.550735 181.940140,186.121414 185.891708,176.597122 
	C186.501694,176.832993 187.111679,177.068863 187.721664,177.304733 
	C184.298782,188.214417 180.875916,199.124115 177.243774,210.391083 
z"/>
<path fill="#FFFFFF" opacity="1.000000" stroke="none" 
	d="
M78.000404,206.999649 
	C80.412033,210.218826 82.792816,213.076248 85.671669,216.531448 
	C81.551491,217.028290 78.587280,218.101074 76.070656,213.829773 
	C73.215500,208.983887 69.331207,204.730209 65.743507,200.342377 
	C65.051735,199.496338 63.663757,199.219543 62.002373,198.379501 
	C62.002373,204.995453 62.002373,210.766510 62.002373,216.764801 
	C60.301987,216.764801 58.899899,216.764801 57.243111,216.764801 
	C57.243111,203.699768 57.243111,190.633011 57.243111,177.008240 
	C62.304901,177.008240 67.414276,176.736694 72.480537,177.087616 
	C77.179939,177.413116 81.411964,181.461456 81.899986,186.093399 
	C82.401985,190.858078 80.405235,194.620300 75.807182,196.640976 
	C74.345268,197.283463 72.841103,197.829803 71.162987,198.496979 
	C73.384323,201.153778 75.676941,203.895828 78.000404,206.999649 
M75.753212,190.777939 
	C77.642334,182.518356 72.772942,176.922165 62.001541,179.615448 
	C62.001541,184.660004 61.993477,189.766739 62.011765,194.873367 
	C62.014046,195.509689 62.155926,196.145523 62.229515,196.751892 
	C69.136780,197.147797 72.544899,195.696625 75.753212,190.777939 
z"/>
<path fill="#FFFFFF" opacity="1.000000" stroke="none" 
	d="
M322.546387,214.804962 
	C312.837708,219.164688 303.614166,218.990265 295.390717,212.713226 
	C288.097839,207.146500 287.732422,198.555817 289.389862,190.697449 
	C291.009827,183.016907 296.515991,178.514832 304.932098,176.764175 
	C317.289764,174.193619 328.980377,180.338181 331.456818,190.769089 
	C333.648621,200.001099 330.584137,210.104874 322.546387,214.804962 
M302.101257,180.374008 
	C292.643616,187.723480 291.774872,200.452133 298.042725,210.124802 
	C300.498199,213.914154 307.836487,216.158310 312.136475,215.495529 
	C320.818024,214.157349 324.736908,209.159363 326.212311,200.678467 
	C327.614899,192.616058 325.608124,186.220703 319.570496,181.197678 
	C314.466095,176.951004 308.637115,177.114624 302.101257,180.374008 
z"/>
<path fill="#FFFFFF" opacity="1.000000" stroke="none" 
	d="
M93.205711,210.699265 
	C86.979286,203.992142 87.457367,191.324432 92.227776,183.468704 
	C95.351669,178.324387 107.969803,174.810837 114.901207,176.298187 
	C131.246735,179.805664 134.900650,194.210037 129.825851,206.756073 
	C127.927063,211.450302 123.781166,214.534012 118.454422,216.251144 
	C108.897865,219.331818 100.746376,217.690018 93.205711,210.699265 
M111.977753,215.531082 
	C114.868423,214.300339 118.118675,213.558136 120.581184,211.745667 
	C127.492844,206.658508 126.144096,198.928513 125.907135,191.825714 
	C125.730339,186.526306 120.164436,180.454132 115.478821,178.964294 
	C108.485962,176.740814 102.248421,178.486938 97.950974,183.834549 
	C92.567436,190.533646 92.973724,198.449921 95.829124,206.381271 
	C98.491867,213.777481 104.684143,215.081604 111.977753,215.531082 
z"/>
<path fill="#FFFFFF" opacity="1.000000" stroke="none" 
	d="
M337.000000,206.958893 
	C337.000000,196.503250 337.000000,186.539566 337.000000,175.200943 
	C347.180511,186.341324 356.597443,196.646103 366.971680,207.998474 
	C366.971680,197.019623 366.971680,187.026642 366.971680,177.033661 
	C367.468750,177.043427 367.965820,177.053192 368.462891,177.062958 
	C368.462891,190.499619 368.462891,203.936264 368.462891,217.831085 
	C358.908905,207.274658 349.352539,196.715622 338.964691,185.237854 
	C338.964691,196.582870 338.964691,206.756241 338.964691,216.929626 
	C338.309784,216.967239 337.654907,217.004837 337.000000,217.042450 
	C337.000000,213.845245 337.000000,210.648041 337.000000,206.958893 
z"/>
<path fill="#FFFFFF" opacity="1.000000" stroke="none" 
	d="
M192.000000,199.998138 
	C192.000000,191.860840 192.000000,184.223267 192.000000,175.299911 
	C202.256302,186.633118 211.810532,197.190521 222.155365,208.621552 
	C222.155365,197.375916 222.155365,187.220749 222.155365,177.065598 
	C222.554611,177.063416 222.953842,177.061234 223.353088,177.059052 
	C223.353088,190.531509 223.353088,204.003952 223.353088,218.042542 
	C213.884689,207.530563 204.537094,197.152710 194.169037,185.641907 
	C194.169037,196.999893 194.169037,206.967041 194.169037,216.934174 
	C193.446030,216.961411 192.723007,216.988663 192.000000,217.015915 
	C192.000000,211.509903 192.000000,206.003891 192.000000,199.998138 
z"/>
<path fill="#FFFFFF" opacity="1.000000" stroke="none" 
	d="
M385.985535,195.000000 
	C388.633301,195.000000 390.805145,195.000000 392.976990,195.000000 
	C392.971252,195.505524 392.965515,196.011032 392.959778,196.516556 
	C388.862213,196.516556 384.764679,196.516556 380.332947,196.516556 
	C380.332947,202.832275 380.332947,208.569046 380.332947,215.043243 
	C385.032867,215.043243 389.988342,215.043243 394.943817,215.043243 
	C394.961121,215.695496 394.978455,216.347748 394.995789,217.000000 
	C391.090271,217.000000 387.184448,217.029556 383.279266,216.994308 
	C372.642731,216.898270 374.070465,218.366867 374.012024,207.767242 
	C373.956299,197.661835 374.000000,187.555878 374.000000,177.299545 
	C381.199341,177.299545 388.056549,177.299545 394.913788,177.299545 
	C394.946625,177.674210 394.979492,178.048874 395.012360,178.423538 
	C390.189056,178.423538 385.365784,178.423538 380.271271,178.423538 
	C380.271271,184.304901 380.271271,189.370148 380.271271,195.000000 
	C381.985840,195.000000 383.747711,195.000000 385.985535,195.000000 
z"/>
<path fill="#FFFFFF" opacity="1.000000" stroke="none" 
	d="
M244.235596,214.317963 
	C249.842636,208.633026 249.170349,203.563797 242.666595,200.272141 
	C239.540131,198.689774 236.341278,197.250900 233.204147,195.688934 
	C229.025909,193.608566 227.570496,189.879868 228.091827,185.615952 
	C228.660370,180.965973 231.301224,177.401291 236.106552,176.468628 
	C240.961456,175.526291 245.960709,175.062256 250.051132,178.597534 
	C249.942642,179.065750 249.834152,179.533966 249.725662,180.002182 
	C248.238388,179.585526 246.711807,179.273392 245.271454,178.731934 
	C241.510376,177.318039 237.530685,177.093857 234.922852,180.185257 
	C233.443924,181.938416 233.307037,185.244766 233.477127,187.790726 
	C233.562469,189.068314 235.530060,190.448822 236.923752,191.357330 
	C239.069000,192.755768 241.438232,193.817383 243.738174,194.970520 
	C251.840775,199.032974 254.313354,204.235397 251.375031,211.102478 
	C249.017792,216.611496 240.883987,219.745148 234.098282,217.563980 
	C231.841385,216.838516 229.758591,215.571472 227.849869,213.775024 
	C233.314728,214.568039 238.406250,218.138748 244.235596,214.317963 
z"/>
<path fill="#FFFFFF" opacity="1.000000" stroke="none" 
	d="
M28.251236,184.255157 
	C23.172020,191.527756 22.966059,198.949341 26.016197,206.623779 
	C28.825708,213.692795 38.017879,218.239639 47.467766,214.099182 
	C48.804157,213.513641 50.143017,212.933731 51.452244,212.363602 
	C51.579655,215.682205 47.054626,217.954788 40.078129,217.999817 
	C28.776978,218.072769 19.699070,209.824905 18.869583,200.145416 
	C17.398195,182.975433 28.202770,176.107483 40.701614,176.012970 
	C47.526203,175.961365 51.578766,177.863022 51.521061,180.918167 
	C40.203236,176.477005 33.651340,177.348480 28.251236,184.255157 
z"/>
<path fill="#FFFFFF" opacity="1.000000" stroke="none" 
	d="
M282.689087,177.001312 
	C283.802063,177.221603 284.443817,177.440765 285.085541,177.659943 
	C285.043549,178.001572 285.001556,178.343216 284.959564,178.684845 
	C281.145569,178.684845 277.331573,178.684845 273.148712,178.684845 
	C273.148712,191.639587 273.148712,204.031494 273.148712,216.794647 
	C271.394165,216.889786 269.988495,216.966003 268.221558,217.061798 
	C268.221558,204.481003 268.221558,192.075455 268.221558,178.929764 
	C263.951599,178.929764 259.998016,178.929764 256.044434,178.929764 
	C256.041779,178.286560 256.039124,177.643372 256.036469,177.000168 
	C264.763611,177.000168 273.490723,177.000168 282.689087,177.001312 
z"/>
<path fill="#FFFFFF" opacity="1.000000" stroke="none" 
	d="
M157.175735,236.675323 
	C161.156082,240.278458 162.093536,244.630768 160.398788,248.916687 
	C158.873734,252.773453 156.031479,256.137085 162.365982,259.453217 
	C161.829849,259.672241 161.293732,259.891266 160.757614,260.110291 
	C159.439316,259.839111 157.217804,259.922058 156.950012,259.239014 
	C155.269440,254.952682 151.744400,255.897003 148.638748,256.051483 
	C144.033203,256.280548 141.129288,253.597870 139.191635,250.188705 
	C136.714828,245.830902 137.614990,241.108673 141.031128,237.695145 
	C143.965286,234.763229 147.792511,232.677505 152.388718,234.814453 
	C153.826889,235.483109 155.396866,235.868301 157.175735,236.675323 
M154.415176,237.945709 
	C151.269745,234.402969 147.895905,235.648712 144.794266,237.793442 
	C141.930618,239.773590 140.943604,246.254196 142.559204,250.070663 
	C144.448578,254.533752 148.056412,254.260559 152.258240,253.678635 
	C151.372421,252.049484 150.674820,250.766495 149.977219,249.483505 
	C150.283981,249.137070 150.590744,248.790649 150.897507,248.444214 
	C152.513412,249.487350 154.129318,250.530472 155.702194,251.545822 
	C158.824677,244.626419 158.751602,243.169357 154.415176,237.945709 
z"/>
<path fill="#FFFFFF" opacity="1.000000" stroke="none" 
	d="
M214.801880,255.984589 
	C211.941223,253.674835 209.458481,251.361954 207.001007,249.022537 
	C206.277283,248.333603 205.625092,247.569489 203.997940,245.836121 
	C203.997940,249.388443 204.105133,251.629974 203.937439,253.850754 
	C203.881805,254.587570 203.119492,255.271027 202.680252,255.978882 
	C202.120621,255.230881 201.092041,254.493073 201.075531,253.733261 
	C200.942947,247.633316 201.001358,241.529236 201.001358,234.947708 
	C205.681702,235.554092 211.145813,232.914658 213.717377,237.955811 
	C215.392685,241.240067 213.951355,245.264389 209.152786,246.295395 
	C211.268372,248.902435 213.273987,251.253998 215.106537,253.733459 
	C215.472855,254.229095 215.178925,255.212708 214.801880,255.984589 
M204.000137,238.708160 
	C204.000137,240.775711 204.000137,242.843246 204.000137,245.464142 
	C206.003372,244.858780 207.670105,244.811874 208.591812,243.959442 
	C209.711716,242.923676 210.968658,241.081360 210.759048,239.822281 
	C210.534302,238.472351 208.856537,236.993011 207.455658,236.357101 
	C206.683182,236.006454 205.177261,237.271637 204.000137,238.708160 
z"/>
<path fill="#FFFFFF" opacity="1.000000" stroke="none" 
	d="
M256.262512,247.757843 
	C258.422211,250.388367 260.322174,252.763596 262.419800,255.385925 
	C258.520508,256.891968 257.100983,254.914993 255.603378,252.270554 
	C254.357010,250.069763 252.422699,248.258575 250.616684,246.060043 
	C248.661484,249.273804 252.030090,253.854141 247.290619,256.794037 
	C247.290619,249.189423 247.290619,242.438568 247.290619,235.000046 
	C249.345886,235.000046 251.683655,234.605759 253.808197,235.109909 
	C255.972824,235.623596 259.099731,236.561462 259.716125,238.133011 
	C260.802673,240.903290 260.251587,244.246368 256.705353,245.882828 
	C256.306885,246.066711 256.229218,246.945816 256.262512,247.757843 
M256.029449,242.672577 
	C257.602020,237.992401 256.034882,236.206512 250.241394,236.226440 
	C250.241394,239.117950 250.241394,242.004929 250.241394,245.612350 
	C252.442780,244.792343 254.190689,244.141251 256.029449,242.672577 
z"/>
<path fill="#FFFFFF" opacity="1.000000" stroke="none" 
	d="
M188.986694,248.000000 
	C186.048126,247.529663 184.667770,248.636887 183.989441,251.038086 
	C183.525253,252.681229 182.774719,254.243484 182.152191,255.841919 
	C181.627899,255.624283 181.103607,255.406647 180.579315,255.189011 
	C183.631699,248.146210 186.684067,241.103424 190.075211,233.278961 
	C193.257355,240.277496 196.071762,246.266754 198.655518,252.353882 
	C199.069153,253.328415 198.450638,254.741043 198.309265,255.951141 
	C197.278976,255.181473 195.998688,254.595825 195.269196,253.604752 
	C193.627991,251.375015 193.977234,247.177795 188.986694,248.000000 
z"/>
<path fill="#FFFFFF" opacity="1.000000" stroke="none" 
	d="
M265.518951,255.993103 
	C264.342743,255.339127 263.583038,254.691132 262.823334,254.043152 
	C262.974091,253.810028 263.124847,253.576904 263.275604,253.343781 
	C263.590576,253.462860 263.898743,253.605774 264.221527,253.697342 
	C267.385834,254.594910 271.099060,256.463104 272.564209,251.738373 
	C273.930634,247.331924 269.817322,247.108185 267.124695,245.978500 
	C263.633514,244.513763 261.733551,239.952057 263.401245,237.084473 
	C265.243256,233.917145 269.789978,233.387192 274.793762,236.388901 
	C272.709229,236.209793 271.434662,235.834732 270.283386,236.068069 
	C268.818726,236.364914 267.453979,237.154510 266.046143,237.731674 
	C266.818542,239.407867 267.477051,241.152542 268.422455,242.724701 
	C268.773224,243.308014 269.767273,243.714127 270.518646,243.811996 
	C274.635773,244.348175 276.158295,247.348618 275.840607,250.708725 
	C275.463165,254.700897 272.354767,256.247040 268.427002,256.007324 
	C267.599396,255.956787 266.766113,255.999420 265.518951,255.993103 
z"/>
<path fill="#FFFFFF" opacity="1.000000" stroke="none" 
	d="
M237.086578,255.999817 
	C235.743134,255.210175 234.145966,254.446198 234.117188,253.627106 
	C233.903503,247.544205 234.001312,241.450348 234.001312,235.241531 
	C237.794052,235.241531 241.171890,235.241531 244.549728,235.241531 
	C244.556091,235.435318 244.562469,235.629105 244.568832,235.822891 
	C242.169067,235.930649 239.769287,236.038406 237.192596,236.154099 
	C237.192596,238.777710 237.192596,241.187546 237.192596,243.829117 
	C239.397079,243.956161 241.470551,244.075653 243.544022,244.195145 
	C243.543640,244.400620 243.543259,244.606094 243.542877,244.811554 
	C241.508163,244.917389 239.473450,245.023224 237.223816,245.140228 
	C237.223816,248.007889 237.223816,250.752014 237.223816,253.849121 
	C239.831543,253.967194 242.421951,254.084488 245.012375,254.201767 
	C245.002975,254.801178 244.993576,255.400574 244.984177,255.999985 
	C242.509155,255.999985 240.034149,255.999985 237.086578,255.999817 
z"/>
<path fill="#FFFFFF" opacity="1.000000" stroke="none" 
	d="
M116.820419,244.000000 
	C119.074875,244.000000 120.863976,244.000000 122.653084,244.000000 
	C122.649506,244.386871 122.645920,244.773743 122.642342,245.160614 
	C108.791634,245.160614 94.940918,245.160614 81.090210,245.160614 
	C81.087585,244.592346 81.084953,244.024078 81.082329,243.455811 
	C92.825752,242.083221 104.594589,243.500473 116.820419,244.000000 
z"/>
<path fill="#FFFFFF" opacity="1.000000" stroke="none" 
	d="
M163.000000,247.701538 
	C163.000519,243.906570 162.896118,240.570984 163.079865,237.251358 
	C163.122513,236.481094 164.147766,235.765198 164.720856,235.024261 
	C165.146667,235.746399 165.864624,236.439407 165.940079,237.196457 
	C166.120819,239.009872 165.976944,240.853745 166.003662,242.684723 
	C166.179611,254.741211 166.440521,252.996475 175.232285,254.583344 
	C169.227829,258.498749 163.404251,255.443909 163.000000,247.701538 
z"/>
<path fill="#FFFFFF" opacity="1.000000" stroke="none" 
	d="
M227.870148,236.003662 
	C226.945740,237.009171 226.100906,237.998383 226.064804,239.016266 
	C225.912094,243.320297 226.109039,247.637268 225.936295,251.939774 
	C225.881577,253.302887 225.075027,254.635834 224.612549,255.982590 
	C224.075043,254.711044 223.116776,253.453568 223.073654,252.165466 
	C222.897186,246.894348 223.000000,241.613876 223.000000,236.193268 
	C220.935760,236.044739 219.208679,235.920471 217.481598,235.796204 
	C217.489761,235.610764 217.497925,235.425323 217.506073,235.239883 
	C222.190598,235.239883 226.875107,235.239883 231.559616,235.239883 
	C231.569733,235.392258 231.579865,235.544647 231.589981,235.697021 
	C230.500565,235.798187 229.411163,235.899353 227.870148,236.003662 
z"/>
<path fill="#FFFFFF" opacity="1.000000" stroke="none" 
	d="
M301.169922,246.000000 
	C299.148407,246.000000 297.608795,246.000000 294.643585,246.000000 
	C299.899719,243.157776 329.113342,243.562057 332.964752,246.000000 
	C322.238281,246.000000 311.945068,246.000000 301.169922,246.000000 
z"/>
<path fill="#FFFFFF" opacity="1.000000" stroke="none" 
	d="
M178.984375,249.587036 
	C178.456573,251.014542 177.942398,251.972488 177.160461,253.429260 
	C177.160461,246.906448 177.160461,240.990860 177.160461,235.075272 
	C177.772964,235.048889 178.385468,235.022522 178.997971,234.996155 
	C178.997971,239.703262 178.997971,244.410370 178.984375,249.587036 
z"/>
<path fill="#000000" opacity="1.000000" stroke="none" 
	d="
M109.579620,54.224342 
	C117.628876,60.226711 125.737015,66.152077 133.711990,72.251572 
	C143.001282,79.356323 152.120300,86.683807 161.414413,93.782135 
	C168.866425,99.473557 176.510559,104.913506 183.957489,110.611382 
	C184.971481,111.387222 185.896011,113.006081 185.912079,114.246918 
	C186.060364,125.696327 185.999557,137.148453 185.999557,148.797699 
	C173.209518,148.797699 160.807770,148.797699 148.000427,148.797699 
	C148.000427,137.167984 147.904114,125.717018 148.122543,114.272049 
	C148.149796,112.844551 149.569824,111.111847 150.815414,110.100609 
	C154.809708,106.857841 159.025101,103.887405 163.246338,100.744019 
	C162.710876,100.241402 162.601822,100.109169 162.466003,100.015930 
	C159.558228,98.019958 155.825867,93.779251 153.900421,94.482590 
	C149.229919,96.188683 145.450699,100.267830 141.215073,103.252747 
	C137.909302,105.582375 136.738510,108.431526 136.877304,112.611656 
	C137.241013,123.565636 137.000000,134.539688 137.000000,145.339584 
	C136.437668,145.655975 136.171799,145.933502 135.898865,145.940628 
	C126.145493,146.195068 126.402176,146.142014 123.947777,133.414948 
	C119.488274,110.290588 114.670624,87.235420 110.059547,64.139969 
	C109.520164,61.438404 109.340652,58.664982 109.131668,55.294655 
	C109.372559,54.517742 109.476089,54.371044 109.579620,54.224342 
M159.004028,128.641907 
	C159.004028,130.374573 159.004028,132.107239 159.004028,133.739380 
	C161.654602,133.739380 163.707413,133.739380 165.778183,133.739380 
	C165.778183,131.419540 165.778183,129.369720 165.778183,126.731354 
	C163.363022,127.085350 161.208755,127.401108 159.004028,128.641907 
M168.003967,132.357239 
	C170.218109,133.052795 172.432236,133.748352 174.683273,134.455490 
	C174.683273,131.230392 174.683273,129.176773 174.683273,127.277710 
	C172.308472,127.277710 170.255264,127.277710 168.000275,127.277710 
	C168.000275,128.844940 168.000275,130.135818 168.003967,132.357239 
M168.000275,121.576462 
	C168.074066,122.989616 168.147858,124.402771 168.218613,125.757919 
	C170.617599,125.757919 172.669830,125.757919 174.797058,125.757919 
	C174.797058,123.458740 174.797058,121.406754 174.797058,118.263359 
	C172.222809,119.165771 170.113388,119.905235 168.000275,121.576462 
M165.999741,123.423538 
	C165.925949,122.010384 165.852158,120.597229 165.781403,119.242081 
	C163.382401,119.242081 161.330170,119.242081 159.202942,119.242081 
	C159.202942,121.541260 159.202942,123.593246 159.202942,126.736649 
	C161.777191,125.834236 163.886612,125.094765 165.999741,123.423538 
z"/>
<path fill="#000000" opacity="1.000000" stroke="none" 
	d="
M178.604218,92.213486 
	C178.250656,91.126694 177.824860,89.723526 178.239548,89.401016 
	C187.073303,82.530754 195.973923,75.744774 204.960022,69.075081 
	C205.732941,68.501404 207.569000,68.339615 208.279190,68.855896 
	C218.059341,75.965591 227.728516,83.227936 237.889404,90.798943 
	C230.939255,95.938179 224.636139,100.415840 218.600861,105.229317 
	C217.505142,106.103210 217.084488,108.347069 217.067337,109.966057 
	C216.942291,121.778137 217.000000,133.592148 217.000000,145.702255 
	C210.405899,145.702255 203.998398,145.702255 197.000000,145.702255 
	C197.000000,136.376251 196.056534,126.823120 197.265350,117.550568 
	C198.473984,108.279495 193.909348,103.482872 187.351898,98.995392 
	C184.413910,96.984840 181.725235,94.609947 178.604218,92.213486 
z"/>
<path fill="#000000" opacity="1.000000" stroke="none" 
	d="
M266.000000,133.996124 
	C266.000000,139.129974 266.000000,143.764587 266.000000,148.698929 
	C253.435791,148.698929 241.055176,148.698929 228.000000,148.698929 
	C228.000000,140.834488 228.941559,132.630966 227.766190,124.742882 
	C226.231339,114.442284 231.049728,108.703896 238.942230,103.956146 
	C241.706131,102.293533 244.147202,100.094238 246.916595,98.003448 
	C252.589264,102.182457 258.489563,106.378738 264.172821,110.850845 
	C265.229614,111.682419 265.875275,113.609253 265.919739,115.054955 
	C266.108734,121.197266 266.000000,127.348740 266.000000,133.996124 
M244.357254,133.996033 
	C245.052811,131.781906 245.748383,129.567764 246.455536,127.316727 
	C243.230408,127.316727 241.176788,127.316727 239.277710,127.316727 
	C239.277710,129.691513 239.277710,131.744736 239.277710,133.999725 
	C240.840790,133.999725 242.133743,133.999725 244.357254,133.996033 
M248.054382,133.281525 
	C250.316208,133.561661 252.578049,133.841782 254.703415,134.105011 
	C254.703415,131.262131 254.703415,129.209122 254.703415,127.257637 
	C252.341278,127.257637 250.287720,127.257637 248.003983,127.257637 
	C248.003983,129.126953 248.003983,130.741028 248.054382,133.281525 
M251.498596,119.000031 
	C245.004456,118.718857 249.135788,123.301117 247.945206,125.642380 
	C250.625275,125.642380 252.790405,125.642380 254.955536,125.642380 
	C253.016159,123.626175 258.014587,119.192940 251.498596,119.000031 
M242.501404,125.999969 
	C248.995544,126.281143 244.864212,121.698883 246.054794,119.357620 
	C243.374725,119.357620 241.209595,119.357620 239.044464,119.357620 
	C240.984650,121.373505 235.985138,125.807167 242.501404,125.999969 
z"/>
<path fill="#000000" opacity="1.000000" stroke="none" 
	d="
M209.786926,50.714657 
	C208.149307,52.472965 206.978119,54.004276 204.898666,51.520363 
	C203.516815,49.869720 201.499298,48.751232 199.295639,47.026066 
	C202.070847,44.780258 204.403748,42.892395 206.936920,40.842449 
	C209.314362,42.697628 211.697845,44.557510 214.698944,46.899338 
	C212.932022,48.245743 211.487640,49.346378 209.786926,50.714657 
z"/>
<path fill="#000000" opacity="1.000000" stroke="none" 
	d="
M109.094566,54.869629 
	C108.677124,54.511154 108.434143,53.947495 108.191162,53.383835 
	C108.526482,53.515491 108.861794,53.647148 109.388367,54.001572 
	C109.476089,54.371044 109.372559,54.517742 109.094566,54.869629 
z"/>
<path fill="#000000" opacity="1.000000" stroke="none" 
	d="
M75.450867,191.055984 
	C72.544899,195.696625 69.136780,197.147797 62.229515,196.751892 
	C62.155926,196.145523 62.014046,195.509689 62.011765,194.873367 
	C61.993477,189.766739 62.001541,184.660004 62.001541,179.615448 
	C72.772942,176.922165 77.642334,182.518356 75.450867,191.055984 
z"/>
<path fill="#000000" opacity="1.000000" stroke="none" 
	d="
M302.459290,180.195374 
	C308.637115,177.114624 314.466095,176.951004 319.570496,181.197678 
	C325.608124,186.220703 327.614899,192.616058 326.212311,200.678467 
	C324.736908,209.159363 320.818024,214.157349 312.136475,215.495529 
	C307.836487,216.158310 300.498199,213.914154 298.042725,210.124802 
	C291.774872,200.452133 292.643616,187.723480 302.459290,180.195374 
z"/>
<path fill="#000000" opacity="1.000000" stroke="none" 
	d="
M111.617805,215.748352 
	C104.684143,215.081604 98.491867,213.777481 95.829124,206.381271 
	C92.973724,198.449921 92.567436,190.533646 97.950974,183.834549 
	C102.248421,178.486938 108.485962,176.740814 115.478821,178.964294 
	C120.164436,180.454132 125.730339,186.526306 125.907135,191.825714 
	C126.144096,198.928513 127.492844,206.658508 120.581184,211.745667 
	C118.118675,213.558136 114.868423,214.300339 111.617805,215.748352 
z"/>
<path fill="#000000" opacity="1.000000" stroke="none" 
	d="
M154.703613,238.216858 
	C158.751602,243.169357 158.824677,244.626419 155.702194,251.545822 
	C154.129318,250.530472 152.513412,249.487350 150.897507,248.444214 
	C150.590744,248.790649 150.283981,249.137070 149.977219,249.483505 
	C150.674820,250.766495 151.372421,252.049484 152.258240,253.678635 
	C148.056412,254.260559 144.448578,254.533752 142.559204,250.070663 
	C140.943604,246.254196 141.930618,239.773590 144.794266,237.793442 
	C147.895905,235.648712 151.269745,234.402969 154.703613,238.216858 
z"/>
<path fill="#000000" opacity="1.000000" stroke="none" 
	d="
M204.001068,238.258255 
	C205.177261,237.271637 206.683182,236.006454 207.455658,236.357101 
	C208.856537,236.993011 210.534302,238.472351 210.759048,239.822281 
	C210.968658,241.081360 209.711716,242.923676 208.591812,243.959442 
	C207.670105,244.811874 206.003372,244.858780 204.000137,245.464142 
	C204.000137,242.843246 204.000137,240.775711 204.001068,238.258255 
z"/>
<path fill="#000000" opacity="1.000000" stroke="none" 
	d="
M255.984039,243.081360 
	C254.190689,244.141251 252.442780,244.792343 250.241394,245.612350 
	C250.241394,242.004929 250.241394,239.117950 250.241394,236.226440 
	C256.034882,236.206512 257.602020,237.992401 255.984039,243.081360 
z"/>
<path fill="#FFFFFF" opacity="1.000000" stroke="none" 
	d="
M159.029266,128.179382 
	C161.208755,127.401108 163.363022,127.085350 165.778183,126.731354 
	C165.778183,129.369720 165.778183,131.419540 165.778183,133.739380 
	C163.707413,133.739380 161.654602,133.739380 159.004028,133.739380 
	C159.004028,132.107239 159.004028,130.374573 159.029266,128.179382 
z"/>
<path fill="#FFFFFF" opacity="1.000000" stroke="none" 
	d="
M168.002121,131.891968 
	C168.000275,130.135818 168.000275,128.844940 168.000275,127.277710 
	C170.255264,127.277710 172.308472,127.277710 174.683273,127.277710 
	C174.683273,129.176773 174.683273,131.230392 174.683273,134.455490 
	C172.432236,133.748352 170.218109,133.052795 168.002121,131.891968 
z"/>
<path fill="#FFFFFF" opacity="1.000000" stroke="none" 
	d="
M168.002121,121.110580 
	C170.113388,119.905235 172.222809,119.165771 174.797058,118.263359 
	C174.797058,121.406754 174.797058,123.458740 174.797058,125.757919 
	C172.669830,125.757919 170.617599,125.757919 168.218613,125.757919 
	C168.147858,124.402771 168.074066,122.989616 168.002121,121.110580 
z"/>
<path fill="#FFFFFF" opacity="1.000000" stroke="none" 
	d="
M165.997894,123.889420 
	C163.886612,125.094765 161.777191,125.834236 159.202942,126.736649 
	C159.202942,123.593246 159.202942,121.541260 159.202942,119.242081 
	C161.330170,119.242081 163.382401,119.242081 165.781403,119.242081 
	C165.852158,120.597229 165.925949,122.010384 165.997894,123.889420 
z"/>
<path fill="#FFFFFF" opacity="1.000000" stroke="none" 
	d="
M243.891968,133.997879 
	C242.133743,133.999725 240.840790,133.999725 239.277710,133.999725 
	C239.277710,131.744736 239.277710,129.691513 239.277710,127.316727 
	C241.176788,127.316727 243.230408,127.316727 246.455536,127.316727 
	C245.748383,129.567764 245.052811,131.781906 243.891968,133.997879 
z"/>
<path fill="#FFFFFF" opacity="1.000000" stroke="none" 
	d="
M248.029175,132.818298 
	C248.003983,130.741028 248.003983,129.126953 248.003983,127.257637 
	C250.287720,127.257637 252.341278,127.257637 254.703415,127.257637 
	C254.703415,129.209122 254.703415,131.262131 254.703415,134.105011 
	C252.578049,133.841782 250.316208,133.561661 248.029175,132.818298 
z"/>
<path fill="#FFFFFF" opacity="1.000000" stroke="none" 
	d="
M251.962677,119.000153 
	C258.014587,119.192940 253.016159,123.626175 254.955536,125.642380 
	C252.790405,125.642380 250.625275,125.642380 247.945206,125.642380 
	C249.135788,123.301117 245.004456,118.718857 251.962677,119.000153 
z"/>
<path fill="#FFFFFF" opacity="1.000000" stroke="none" 
	d="
M242.037323,125.999847 
	C235.985138,125.807167 240.984650,121.373505 239.044464,119.357620 
	C241.209595,119.357620 243.374725,119.357620 246.054794,119.357620 
	C244.864212,121.698883 248.995544,126.281143 242.037323,125.999847 
z"/>
</svg>