<svg version="1.1" id="Layer_1" xmlns="http://www.w3.org/2000/svg" xmlns:xlink="http://www.w3.org/1999/xlink" x="0px" y="0px"
	 width="100%" viewBox="0 0 904 501" enable-background="new 0 0 904 501" xml:space="preserve">
<path fill="#000000" opacity="1.000000" stroke="none" 
	d="
M674.000000,502.000000 
	C449.333344,502.000000 225.166672,502.000000 1.000000,502.000000 
	C1.000000,335.000000 1.000000,168.000000 1.000000,1.000000 
	C302.333344,1.000000 603.666687,1.000000 905.000000,1.000000 
	C905.000000,168.000000 905.000000,335.000000 905.000000,502.000000 
	C828.166687,502.000000 751.333313,502.000000 674.000000,502.000000 
M498.885040,126.390663 
	C498.298157,126.243546 497.711304,126.096428 496.868683,125.348953 
	C496.251495,125.297981 495.634277,125.247009 494.087738,125.050064 
	C482.396118,125.109818 470.704498,125.169571 458.354126,125.206207 
	C458.001678,126.140953 457.649231,127.075691 457.121521,128.800400 
	C457.173126,129.873245 457.224731,130.946091 457.109131,132.495056 
	C457.162476,132.654587 457.215790,132.814133 457.094604,133.899048 
	C457.152740,139.940140 457.210876,145.981216 457.087036,152.745941 
	C457.148041,153.484406 457.209015,154.222885 457.101776,155.844833 
	C457.160400,158.238235 457.218994,160.631653 457.094818,163.925674 
	C457.225555,167.833923 457.356293,171.742157 457.213043,176.006042 
	C457.088623,176.306061 457.112732,176.593491 457.095184,177.478668 
	C457.155548,178.322388 457.215912,179.166092 457.102814,180.927856 
	C457.078766,185.952454 457.054749,190.977066 456.176147,195.738632 
	C456.095947,194.748444 455.946564,193.758316 455.945740,192.768051 
	C455.928802,172.120575 455.857605,151.472672 455.982849,130.825958 
	C456.009094,126.499580 454.750671,124.766373 450.074921,124.910706 
	C439.093994,125.249657 428.091278,125.201141 417.106323,124.937340 
	C412.731598,124.832283 411.073883,126.761642 411.069397,130.659714 
	C411.037750,158.136078 411.066101,185.612503 411.048248,213.088882 
	C411.046112,216.352356 412.479614,218.015915 415.822144,217.941986 
	C429.873535,217.631119 443.925323,217.338684 458.005280,217.016083 
	C458.005280,217.016083 457.970825,217.017761 458.401642,217.777649 
	C467.588409,217.764297 476.775208,217.750931 486.642395,217.902710 
	C487.102081,217.845367 487.561737,217.788040 488.920135,217.910370 
	C491.418854,217.915665 493.919067,217.869781 496.415894,217.940796 
	C498.868683,218.010513 499.989349,217.152496 499.965271,214.452530 
	C499.818390,197.967056 499.813080,181.480316 499.930023,164.076141 
	C499.877899,159.385895 499.825775,154.695633 499.944794,149.081787 
	C499.574371,141.726288 499.203979,134.370804 498.885040,126.390663 
M720.065186,326.848114 
	C720.076782,332.146454 719.974426,337.450195 720.225952,342.737122 
	C720.262695,343.508209 721.904541,344.624237 722.951904,344.831482 
	C724.714905,345.180237 726.612244,344.776764 728.425354,344.961395 
	C731.910461,345.316162 733.094482,343.939087 733.022766,340.414124 
	C732.822998,330.592651 732.789490,320.761047 733.006897,310.940430 
	C733.130676,305.346344 733.873596,299.765961 734.387146,293.585571 
	C747.791870,307.744720 760.726807,321.401001 773.643555,335.074341 
	C774.188232,335.650909 774.484497,336.463257 775.032776,337.034973 
	C778.446106,340.594513 781.043030,345.270721 786.940430,346.159332 
	C786.940430,320.106567 786.964844,294.469208 786.865356,268.832367 
	C786.860596,267.601349 786.067993,265.666412 785.124939,265.260162 
	C778.732239,262.506561 773.243347,266.183624 773.086304,273.120178 
	C773.026001,275.783020 773.100525,278.448761 773.101257,281.113159 
	C773.104248,291.979553 773.102539,302.845917 773.102539,314.414215 
	C770.168701,311.977783 767.726257,310.348175 765.771545,308.261597 
	C753.057495,294.689545 740.514343,280.956787 727.731018,267.450989 
	C725.979919,265.600952 723.206177,264.718781 719.982056,262.854187 
	C719.982056,274.659698 719.982056,284.805786 719.180298,295.326233 
	C719.119629,304.914490 719.039673,314.502716 719.041321,324.090973 
	C719.041382,324.737518 719.657593,325.383972 720.065186,326.848114 
M411.525940,58.020069 
	C404.806030,64.070885 398.102905,70.140465 391.362854,76.168724 
	C375.832886,90.058548 360.295319,103.939934 344.738434,117.799591 
	C339.597412,122.379730 334.336700,126.826157 329.221344,131.434357 
	C321.269470,138.597839 313.396912,145.849380 305.486877,153.059357 
	C303.014465,155.312973 303.642120,157.436829 305.884399,159.305145 
	C308.653595,161.612503 311.501221,161.526352 314.244965,159.159592 
	C319.184845,154.898438 324.100555,150.609009 329.067108,146.379227 
	C331.589630,144.230911 334.200836,142.186707 337.618469,139.406906 
	C337.811249,142.141693 338.036438,143.867126 338.038818,145.592865 
	C338.069061,167.754089 338.117676,189.915588 338.026245,212.076431 
	C338.010406,215.918289 339.098267,218.038559 343.329773,217.958649 
	C347.579803,217.878403 347.963654,215.323837 347.957520,211.968552 
	C347.909607,185.812225 347.876282,159.655197 348.081757,133.500290 
	C348.099731,131.213226 349.265137,128.308121 350.907227,126.763397 
	C360.974487,117.293205 371.299530,108.095222 381.602051,98.877388 
	C396.751831,85.322647 411.931763,71.801346 427.144531,58.317295 
	C434.979279,51.372803 442.908966,44.535351 450.803955,37.658924 
	C453.233185,35.543056 455.782410,35.594269 458.157593,37.627556 
	C467.967102,46.025066 477.772522,54.428768 487.480072,62.943481 
	C492.197815,67.081551 496.554626,71.635529 501.324005,75.709534 
	C511.353729,84.276939 521.624939,92.561798 531.651184,101.133171 
	C540.248840,108.483147 548.741577,115.963577 557.075745,123.609718 
	C560.088501,126.373726 563.874634,128.643845 563.184204,134.132706 
	C562.483276,139.705536 563.013428,145.434418 563.021179,151.094940 
	C563.047241,170.256149 563.058472,189.417465 563.148865,208.578384 
	C563.157166,210.330154 563.996521,212.093002 563.919800,213.827255 
	C563.725525,218.216965 567.226990,217.648453 569.533081,217.786484 
	C572.854553,217.985291 573.005249,215.387146 572.995911,212.685074 
	C572.918335,190.190781 572.947083,167.696136 572.943787,145.201584 
	C572.943542,143.480591 572.943787,141.759598 572.943787,139.051102 
	C582.980530,147.338699 592.064941,154.839951 600.969666,162.192764 
	C608.469727,157.576538 608.763245,156.061874 602.968445,150.606094 
	C596.640503,144.648361 590.128235,138.881409 583.585144,133.158417 
	C576.945068,127.350571 570.015442,121.866470 563.500427,115.924980 
	C558.076843,110.978806 552.981689,106.835983 554.477051,97.098785 
	C556.476868,84.076859 554.933716,70.514908 554.972900,57.185032 
	C554.983093,53.721252 554.146545,51.656620 549.949097,51.929146 
	C544.472839,52.284695 538.930603,52.374798 533.466736,51.944107 
	C528.688477,51.567455 528.261719,55.057655 528.135132,57.789352 
	C527.752808,66.038643 527.997070,74.316978 527.997070,82.960022 
	C526.721863,82.313950 525.610657,81.995972 524.815125,81.311226 
	C512.415283,70.637741 500.053802,59.919651 487.688507,49.206074 
	C477.654327,40.512241 467.586243,31.856836 457.624664,23.080542 
	C455.105530,20.861141 452.987335,20.784595 450.508911,23.016319 
	C437.708435,34.542789 424.863586,46.020042 411.525940,58.020069 
M301.102753,322.385529 
	C304.351929,330.688293 307.601105,338.991058 310.850250,347.293823 
	C311.644257,347.364075 312.438293,347.434296 313.232300,347.504547 
	C316.807312,339.204041 320.460938,330.936249 323.935364,322.593842 
	C327.452759,314.148285 330.792938,305.628845 334.614502,296.139130 
	C335.764954,298.587830 336.510925,299.998962 337.106567,301.470978 
	C342.456757,314.693115 347.695282,327.961639 353.207550,341.115601 
	C353.999939,343.006500 356.074310,344.360168 357.555420,345.962463 
	C358.751404,344.435699 360.087219,342.995270 361.099457,341.355133 
	C361.922913,340.020935 362.413300,338.467377 362.957825,336.976929 
	C368.016449,323.131317 372.945801,309.237274 378.139069,295.442505 
	C381.353943,286.902893 385.039856,278.541107 388.306732,270.019897 
	C388.795319,268.745483 388.727020,266.458282 387.911194,265.632050 
	C385.402252,263.091125 375.003265,265.567810 373.696320,268.909271 
	C370.712250,276.538452 367.954559,284.255768 365.026978,291.907471 
	C362.337372,298.937256 359.545776,305.928040 356.262970,314.303955 
	C353.773468,308.340637 351.767609,303.809418 349.978577,299.194122 
	C346.089996,289.162689 342.403687,279.051544 338.395477,269.069031 
	C337.753296,267.469666 335.873199,266.367371 334.565369,265.035278 
	C333.563721,266.356293 332.207275,267.536774 331.619202,269.021606 
	C328.315063,277.364227 325.345245,285.840820 321.967041,294.152100 
	C319.213898,300.925720 316.047760,307.531494 312.495605,315.486328 
	C307.644165,301.255188 303.234009,288.500732 298.954407,275.702667 
	C295.948059,266.712311 293.926575,264.897461 286.432892,265.066498 
	C280.762939,265.194397 280.012817,266.097107 282.023071,271.472107 
	C288.281158,288.205292 294.679382,304.886108 301.102753,322.385529 
M191.059204,307.346802 
	C191.040787,317.061218 195.110062,325.536743 201.242477,332.323853 
	C217.500900,350.318115 244.778503,352.584198 262.618317,334.509705 
	C272.881805,324.111145 277.401764,310.574280 273.692322,296.148346 
	C267.643066,272.622925 248.478577,260.636841 224.902786,264.384308 
	C205.837097,267.414917 189.345505,284.813385 191.059204,307.346802 
M650.520569,265.983795 
	C633.022766,271.399963 621.823792,285.755646 621.337524,303.601776 
	C620.981995,316.645599 625.542236,328.335175 636.530212,337.187134 
	C651.514709,349.258545 671.729553,349.619537 686.684265,339.603363 
	C700.054321,330.648529 705.935730,317.994293 705.147461,301.514984 
	C704.367676,285.215454 691.475098,270.651550 677.219849,266.003357 
	C668.531006,263.170166 659.878296,263.486847 650.520569,265.983795 
M405.105347,343.163757 
	C407.178162,343.757263 409.235657,344.789948 411.326691,344.863007 
	C417.941498,345.094025 417.951843,344.955200 417.950226,338.581177 
	C417.946869,325.249481 417.927002,311.917725 417.947266,298.586090 
	C417.949097,297.392700 418.193695,296.199707 418.403229,294.303253 
	C419.849945,295.545013 420.745544,296.199432 421.506592,296.984314 
	C430.849091,306.619659 440.251831,316.198669 449.464813,325.956665 
	C453.824890,330.574677 457.576660,335.780823 462.065430,340.257904 
	C464.392731,342.579102 465.966766,347.022156 470.480804,345.794281 
	C471.005310,339.063690 471.842834,332.837646 471.908905,326.603455 
	C472.092590,309.275024 471.971100,291.943146 471.919861,274.612762 
	C471.915100,273.002716 471.483612,271.398621 471.368134,269.783356 
	C470.893951,263.151428 465.819641,265.109497 462.193329,265.163391 
	C458.168793,265.223145 458.069061,268.521545 458.075287,271.614258 
	C458.101776,284.778839 458.097107,297.943512 458.075256,311.108124 
	C458.073059,312.441895 457.879181,313.775330 457.774292,315.108948 
	C454.418976,312.883087 452.439178,310.116699 450.122467,307.669159 
	C436.801514,293.595703 423.429993,279.569550 409.969025,265.630310 
	C408.942139,264.566895 407.090729,264.299744 403.983002,262.950806 
	C404.629700,290.398865 402.937286,316.329559 405.105347,343.163757 
M132.986511,319.739197 
	C133.289383,318.335815 133.148788,316.529816 133.984100,315.609894 
	C135.941498,313.454193 146.334274,315.169678 147.992615,317.705994 
	C153.039398,325.424622 157.898193,333.274017 163.197708,340.814148 
	C164.515671,342.689362 167.084824,344.369781 169.320251,344.761200 
	C173.019836,345.408966 176.915436,344.937256 182.600403,344.937256 
	C174.935303,334.050354 168.014694,324.220886 161.089035,314.384216 
	C162.439270,313.697388 163.715240,312.999207 165.031097,312.386719 
	C175.695496,307.422668 179.429749,296.453094 178.874985,288.141632 
	C178.118866,276.813385 172.156677,268.566925 161.011292,266.877380 
	C149.190186,265.085419 137.020966,265.453796 124.997437,265.245453 
	C122.527298,265.202667 120.938232,267.029755 120.933853,270.290039 
	C120.921661,279.362976 120.207367,288.432861 120.083366,297.508240 
	C119.910507,310.159210 119.871971,322.816986 120.119240,335.465118 
	C120.179321,338.538330 120.599457,342.748871 122.565498,344.406250 
	C126.879974,348.043335 133.885620,344.124298 133.885696,338.407135 
	C133.885773,332.500122 133.310638,326.593079 132.986511,319.739197 
M821.946960,321.504578 
	C821.946960,318.065887 821.946960,314.627197 821.946960,310.939850 
	C832.139587,310.939850 841.778381,310.826080 851.412048,310.997192 
	C855.142334,311.063446 857.367981,310.636444 857.069946,305.937042 
	C856.807800,301.802734 856.544556,298.670990 851.233032,299.015594 
	C847.583313,299.252380 843.905823,299.063538 840.240784,299.063873 
	C834.158936,299.064392 828.077087,299.064026 822.252625,299.064026 
	C822.252625,291.581238 822.252625,284.829803 822.252625,276.953033 
	C834.463318,276.953033 846.347229,276.825653 858.225647,277.027557 
	C861.988892,277.091492 863.332214,275.845490 863.017517,272.139435 
	C862.739319,268.863525 864.054199,264.985138 858.457458,265.020996 
	C843.464661,265.117065 828.469055,264.949860 813.480164,265.210846 
	C811.978821,265.236969 809.785645,267.199768 809.201843,268.749176 
	C808.261841,271.243958 808.128113,274.142395 808.118652,276.871918 
	C808.050903,296.529602 808.056946,316.187866 808.132263,335.845612 
	C808.165649,344.569092 808.604004,344.929047 817.201416,344.941650 
	C830.862183,344.961639 844.522949,344.953064 858.183716,344.956512 
	C858.850098,344.956696 859.519775,344.912689 860.182312,344.962830 
	C864.982544,345.326172 863.792725,341.810883 863.934692,339.172913 
	C864.083679,336.407227 864.353455,333.952881 860.109314,333.922821 
	C848.366699,333.839752 836.626770,333.371155 824.886169,333.037964 
	C823.950256,333.011414 823.018066,332.854431 821.946838,332.743866 
	C821.946838,329.127502 821.946838,325.812073 821.946960,321.504578 
M102.538048,335.916412 
	C107.005043,331.117584 105.703735,328.840210 95.455147,323.912964 
	C88.205811,332.761017 78.392456,336.279175 67.501923,333.638519 
	C55.735031,330.785400 48.151669,322.436005 46.282009,310.362915 
	C44.738934,300.398651 46.733414,291.077240 54.722519,283.606842 
	C63.195869,275.683685 83.240547,274.118073 91.215050,283.386536 
	C95.017868,287.806396 97.135086,287.357025 102.413559,283.017303 
	C105.368027,280.588226 106.050819,278.453400 102.885681,275.332733 
	C92.436676,265.030640 80.072319,262.810059 66.002693,264.902924 
	C37.644009,269.121338 25.341822,300.538391 36.941532,324.314514 
	C43.059082,336.853760 53.218266,343.876892 67.177025,346.062164 
	C80.437042,348.138031 91.824715,344.836914 102.538048,335.916412 
M534.913086,340.543427 
	C535.497681,339.950043 536.049255,339.319397 536.671753,338.768921 
	C546.594543,329.995239 546.562073,312.055298 533.645081,305.351624 
	C526.578735,301.684357 518.973816,299.039978 511.563171,296.055023 
	C503.184662,292.680298 500.988007,284.699554 507.061401,279.355072 
	C512.164612,274.864349 521.204041,274.779053 528.243164,279.821075 
	C532.015625,282.523193 534.640503,282.006592 537.518738,278.907990 
	C538.640930,277.699921 540.081909,276.787964 542.529358,274.810669 
	C538.182922,271.819489 535.007263,268.952881 531.302734,267.210876 
	C519.676697,261.743835 508.070343,262.621094 497.761444,270.093903 
	C491.070770,274.943878 488.977203,282.966705 490.250122,290.806000 
	C491.609741,299.179382 497.587311,304.718201 505.363678,307.918060 
	C511.583893,310.477631 517.997620,312.562927 524.265503,315.012207 
	C527.881104,316.425018 530.088440,318.933685 530.110107,323.162872 
	C530.132019,327.429016 528.269531,330.192932 524.571716,332.167877 
	C516.754333,336.342987 508.092407,334.848328 500.747986,327.188110 
	C496.979156,323.257233 494.937347,325.604614 492.284760,328.227417 
	C489.649811,330.832703 487.499298,332.661316 491.049530,336.688446 
	C500.203430,347.071899 523.187378,349.646606 534.913086,340.543427 
M590.941528,323.498871 
	C590.941528,308.414124 590.941528,293.329407 590.941528,277.919189 
	C597.912842,277.919189 604.376709,277.846283 610.838013,277.944580 
	C615.226196,278.011322 616.970032,275.884521 616.946594,271.651611 
	C616.921387,267.103394 614.797546,265.046875 610.283875,265.056580 
	C598.131592,265.082703 585.979187,265.005829 573.826782,264.987305 
	C569.188354,264.980225 564.549072,264.977173 559.911438,265.050873 
	C554.399597,265.138489 552.195923,267.246429 552.071838,272.059662 
	C551.919189,277.979492 556.150330,276.873688 559.671814,276.995087 
	C565.457153,277.194489 571.242188,277.402527 577.080444,277.608826 
	C577.080444,298.572906 577.061218,318.378906 577.092590,338.184814 
	C577.101624,343.872528 578.377808,344.654083 584.678711,345.013184 
	C589.744568,345.301880 590.982544,342.741028 590.936768,338.481659 
	C590.886658,333.820862 590.923523,329.159180 590.941528,323.498871 
M316.082184,424.415771 
	C320.422272,416.824982 317.836578,409.702911 313.562836,403.481232 
	C308.594330,396.248199 300.620789,392.298523 292.154510,393.320312 
	C276.540955,395.204742 267.267670,404.541718 270.043915,422.574829 
	C271.342712,431.011230 284.565826,442.387238 293.276367,440.629456 
	C299.562714,439.360901 302.957336,442.143768 306.922577,445.378113 
	C311.103058,448.788025 313.406342,448.502838 316.865906,444.687805 
	C318.886749,442.459351 318.096039,441.400818 315.795776,440.413483 
	C313.080536,439.248047 310.408752,437.981323 307.698029,436.749359 
	C310.696259,432.553650 313.324219,428.876068 316.082184,424.415771 
M577.947998,394.050903 
	C571.490906,394.043274 565.027954,394.198517 558.579163,393.963165 
	C555.054016,393.834503 553.960205,395.068878 554.007935,398.555481 
	C554.176453,410.864807 554.085999,423.177979 554.054321,435.489594 
	C554.048584,437.717560 553.761353,439.908173 557.056519,439.996613 
	C559.752563,440.068939 561.999634,440.028442 562.181335,436.395355 
	C562.399780,432.026794 562.943359,427.674469 563.347290,423.302856 
	C569.094788,421.444794 572.322693,424.532349 575.112366,429.049774 
	C577.153503,432.354919 579.234497,435.924286 582.174133,438.284027 
	C584.131897,439.855560 587.632263,439.505371 590.442139,440.015289 
	C589.557922,438.123322 588.859192,436.113983 587.751770,434.363159 
	C585.262939,430.428345 582.571289,426.621826 579.963989,422.765747 
	C589.234009,415.738556 593.471985,408.408325 585.832886,398.954987 
	C584.114929,396.828979 581.183594,395.683502 577.947998,394.050903 
M456.069733,417.362793 
	C456.392334,416.810913 456.659271,416.216156 457.046265,415.713867 
	C460.279663,411.517151 461.245361,406.810822 458.866608,402.097290 
	C456.150513,396.715393 451.615906,393.776703 445.269623,393.996765 
	C440.321960,394.168335 435.358337,394.164459 430.411713,393.977295 
	C427.254333,393.857849 425.885925,394.816162 425.986847,398.197327 
	C426.185181,404.841675 426.162872,411.499176 426.001984,418.145721 
	C425.862976,423.888611 425.493164,429.630463 425.055664,435.359833 
	C424.795441,438.767700 425.968140,440.020264 429.535858,440.080200 
	C433.288147,440.143341 433.899689,438.149780 433.932922,435.297333 
	C433.980652,431.201843 433.945068,427.105377 433.945068,423.274353 
	C439.638306,421.982666 443.362610,423.329926 445.372437,428.559601 
	C446.160461,430.609924 447.662811,432.433289 449.047546,434.196960 
	C452.027740,437.992767 455.098785,441.781586 461.690308,439.120514 
	C459.800079,436.242157 457.971008,433.520874 456.209381,430.756592 
	C454.435364,427.972900 452.728424,425.146484 451.105530,422.522186 
	C452.802856,420.776184 454.192322,419.346863 456.069733,417.362793 
M327.049866,419.556915 
	C327.048706,421.053589 327.086273,422.551483 327.039795,424.046753 
	C326.810822,431.409882 333.144470,440.520966 344.456726,440.783569 
	C354.062134,441.006561 361.512573,435.583374 362.760345,426.078522 
	C363.977325,416.807892 363.613953,407.330109 363.950134,397.943451 
	C364.080292,394.308411 362.193024,393.090607 358.733765,393.011932 
	C354.871826,392.924042 355.025696,395.284424 355.041260,397.933746 
	C355.090118,406.248291 355.122925,414.564087 355.026337,422.877869 
	C354.963348,428.300995 352.106140,432.026581 347.069122,432.956024 
	C342.555695,433.788818 338.406769,432.713043 336.606934,428.028656 
	C335.535767,425.240753 335.120850,422.075348 335.030060,419.061035 
	C334.809814,411.750488 334.827911,404.426025 335.006134,397.113434 
	C335.081970,394.001404 333.845978,393.094879 330.932281,393.033295 
	C327.791321,392.966949 326.940765,394.304993 327.000275,397.227722 
	C327.145355,404.353210 327.049103,411.483612 327.049866,419.556915 
M532.122253,432.086060 
	C528.150146,432.086060 524.178040,432.086060 521.207703,432.086060 
	C514.611267,423.649475 522.756836,420.567200 526.415771,415.966125 
	C518.214600,411.434845 518.214600,411.434845 519.471558,401.941925 
	C521.221008,401.941925 523.020447,402.020355 524.810913,401.927368 
	C530.380127,401.638184 535.964539,401.443146 541.495361,400.801147 
	C542.435791,400.691986 543.674622,398.605225 543.788269,397.343231 
	C543.881165,396.310669 542.741882,394.723358 541.717773,394.144440 
	C540.380737,393.388641 538.608582,393.061981 537.041199,393.111176 
	C528.509155,393.379089 519.982544,393.819305 511.061432,394.217743 
	C511.061432,408.638489 510.999512,422.755585 511.187866,436.869385 
	C511.201782,437.912415 512.994202,439.799500 513.998413,439.825867 
	C522.987427,440.062103 531.990540,440.122223 540.974609,439.809204 
	C542.348694,439.761353 544.229065,437.749512 544.765625,436.249207 
	C545.095398,435.326904 543.502197,432.697632 542.450195,432.493225 
	C539.399170,431.900360 536.185486,432.144989 532.122253,432.086060 
M379.984131,422.383759 
	C378.001282,426.431976 375.775024,430.386810 374.167206,434.578888 
	C373.602631,436.050934 374.555756,438.105072 374.815857,439.893433 
	C377.000854,438.993378 380.697540,438.537750 381.114929,437.118042 
	C383.163788,430.148987 387.923798,429.271027 393.958313,429.953857 
	C396.097565,430.195923 398.293518,430.098816 400.452240,429.968750 
	C403.755646,429.769745 405.852173,430.839264 407.134338,434.206451 
	C409.728516,441.019012 412.387848,440.657410 418.305511,439.217438 
	C410.688507,423.707886 403.112854,408.282562 395.537201,392.857239 
	C394.946442,392.761414 394.355652,392.665588 393.764862,392.569733 
	C389.204010,402.252380 384.643127,411.935028 379.984131,422.383759 
M602.447510,412.839996 
	C607.985168,415.710663 613.704712,418.291687 618.969116,421.597534 
	C621.014954,422.882202 623.730896,426.632172 623.159302,427.802216 
	C622.038513,430.096588 618.809082,432.762115 616.482849,432.734131 
	C613.092773,432.693329 609.803223,430.135803 606.322998,429.202301 
	C604.648865,428.753265 602.636475,429.564911 600.777283,429.805664 
	C601.170410,431.327332 601.109802,433.241486 602.031006,434.306244 
	C607.522949,440.654205 614.695984,442.142334 622.347900,439.650421 
	C627.212402,438.066254 631.142334,434.674683 631.934204,429.027679 
	C632.707397,423.513916 630.556091,419.453430 625.535217,416.943726 
	C620.947144,414.650360 616.331848,412.405701 611.810974,409.985535 
	C608.164062,408.033203 607.921204,405.472839 610.898987,402.586548 
	C613.819702,399.755432 619.721252,400.319885 625.219788,403.956268 
	C630.528503,399.190857 630.132629,397.202545 623.448486,394.896545 
	C622.247437,394.482178 621.132141,393.756134 619.908264,393.481506 
	C613.434692,392.029053 608.009521,393.820465 603.644287,398.871918 
	C600.096497,402.977509 599.393127,407.356110 602.447510,412.839996 
M125.531448,407.977692 
	C165.644150,407.977692 205.756866,407.977692 245.749191,407.977692 
	C246.863876,402.781586 243.709061,403.036682 240.495590,403.039246 
	C200.022003,403.071808 159.548386,403.057892 119.074768,403.055786 
	C118.075424,403.055756 116.938408,402.751648 116.109955,403.127655 
	C114.955544,403.651703 114.031967,404.684235 113.009621,405.499146 
	C114.023285,406.317841 114.966469,407.707886 116.064415,407.843353 
	C118.854309,408.187500 121.713501,407.969940 125.531448,407.977692 
M707.500000,403.049011 
	C691.859619,403.054077 676.218506,402.990997 660.580200,403.173279 
	C659.072693,403.190857 657.582947,404.731476 656.084961,405.565002 
	C657.613342,406.360260 659.139587,407.845398 660.670410,407.850128 
	C701.601135,407.976807 742.532227,407.963348 783.463257,407.905365 
	C785.023743,407.903168 786.583252,407.222412 788.143250,406.857880 
	C788.183655,406.184143 788.223999,405.510406 788.264404,404.836670 
	C786.135071,404.243103 784.008362,403.144104 781.876160,403.133301 
	C757.417908,403.009644 732.958862,403.051361 707.500000,403.049011 
M482.881622,439.923584 
	C487.641724,440.780334 489.240753,438.966400 489.067841,434.028839 
	C488.696960,423.438843 488.954102,412.826843 488.954102,402.247894 
	C493.406616,401.678802 497.422211,401.165588 501.436737,400.651672 
	C503.694122,394.022400 503.694122,394.021454 496.672363,394.023468 
	C488.689423,394.025757 480.705872,393.978546 472.724121,394.077148 
	C471.151459,394.096588 469.376465,394.336243 468.085846,395.119019 
	C467.121948,395.703674 466.152283,397.453308 466.351868,398.450745 
	C466.550415,399.442963 468.109894,400.669800 469.239105,400.874359 
	C472.711761,401.503387 476.264160,401.692261 480.076935,402.081970 
	C480.076935,411.822479 479.918976,421.277893 480.170105,430.722382 
	C480.248718,433.679321 481.429535,436.606964 482.881622,439.923584 
M532.993530,418.220062 
	C534.597412,419.012634 536.201355,419.805206 537.805237,420.597748 
	C538.216614,419.123535 539.337158,417.337494 538.860657,416.253662 
	C538.258911,414.884979 536.355225,414.088684 535.013184,413.045502 
	C534.335022,414.496643 533.656860,415.947784 532.993530,418.220062 
z"/>
<path fill="#F7F6F3" opacity="1.000000" stroke="none" 
	d="
M411.780090,57.767265 
	C424.863586,46.020042 437.708435,34.542789 450.508911,23.016319 
	C452.987335,20.784595 455.105530,20.861141 457.624664,23.080542 
	C467.586243,31.856836 477.654327,40.512241 487.688507,49.206074 
	C500.053802,59.919651 512.415283,70.637741 524.815125,81.311226 
	C525.610657,81.995972 526.721863,82.313950 527.997070,82.960022 
	C527.997070,74.316978 527.752808,66.038643 528.135132,57.789352 
	C528.261719,55.057655 528.688477,51.567455 533.466736,51.944107 
	C538.930603,52.374798 544.472839,52.284695 549.949097,51.929146 
	C554.146545,51.656620 554.983093,53.721252 554.972900,57.185032 
	C554.933716,70.514908 556.476868,84.076859 554.477051,97.098785 
	C552.981689,106.835983 558.076843,110.978806 563.500427,115.924980 
	C570.015442,121.866470 576.945068,127.350571 583.585144,133.158417 
	C590.128235,138.881409 596.640503,144.648361 602.968445,150.606094 
	C608.763245,156.061874 608.469727,157.576538 600.969666,162.192764 
	C592.064941,154.839951 582.980530,147.338699 572.943787,139.051102 
	C572.943787,141.759598 572.943542,143.480591 572.943787,145.201584 
	C572.947083,167.696136 572.918335,190.190781 572.995911,212.685074 
	C573.005249,215.387146 572.854553,217.985291 569.533081,217.786484 
	C567.226990,217.648453 563.725525,218.216965 563.919800,213.827255 
	C563.996521,212.093002 563.157166,210.330154 563.148865,208.578384 
	C563.058472,189.417465 563.047241,170.256149 563.021179,151.094940 
	C563.013428,145.434418 562.483276,139.705536 563.184204,134.132706 
	C563.874634,128.643845 560.088501,126.373726 557.075745,123.609718 
	C548.741577,115.963577 540.248840,108.483147 531.651184,101.133171 
	C521.624939,92.561798 511.353729,84.276939 501.324005,75.709534 
	C496.554626,71.635529 492.197815,67.081551 487.480072,62.943481 
	C477.772522,54.428768 467.967102,46.025066 458.157593,37.627556 
	C455.782410,35.594269 453.233185,35.543056 450.803955,37.658924 
	C442.908966,44.535351 434.979279,51.372803 427.144531,58.317295 
	C411.931763,71.801346 396.751831,85.322647 381.602051,98.877388 
	C371.299530,108.095222 360.974487,117.293205 350.907227,126.763397 
	C349.265137,128.308121 348.099731,131.213226 348.081757,133.500290 
	C347.876282,159.655197 347.909607,185.812225 347.957520,211.968552 
	C347.963654,215.323837 347.579803,217.878403 343.329773,217.958649 
	C339.098267,218.038559 338.010406,215.918289 338.026245,212.076431 
	C338.117676,189.915588 338.069061,167.754089 338.038818,145.592865 
	C338.036438,143.867126 337.811249,142.141693 337.618469,139.406906 
	C334.200836,142.186707 331.589630,144.230911 329.067108,146.379227 
	C324.100555,150.609009 319.184845,154.898438 314.244965,159.159592 
	C311.501221,161.526352 308.653595,161.612503 305.884399,159.305145 
	C303.642120,157.436829 303.014465,155.312973 305.486877,153.059357 
	C313.396912,145.849380 321.269470,138.597839 329.221344,131.434357 
	C334.336700,126.826157 339.597412,122.379730 344.738434,117.799591 
	C360.295319,103.939934 375.832886,90.058548 391.362854,76.168724 
	C398.102905,70.140465 404.806030,64.070885 411.780090,57.767265 
M546.098267,82.439491 
	C546.098267,75.009155 546.098267,67.578812 546.098267,60.168297 
	C542.754150,60.168297 540.003174,60.168297 537.390808,60.168297 
	C536.913208,69.128700 536.260071,77.831917 536.118286,86.543449 
	C536.082886,88.716553 537.213440,91.335869 538.663879,93.007439 
	C540.934143,95.623764 543.933289,97.607590 547.210632,100.350594 
	C546.804871,94.159119 546.452881,88.788887 546.098267,82.439491 
z"/>
<path fill="#F8F6F3" opacity="1.000000" stroke="none" 
	d="
M301.063019,321.986389 
	C294.679382,304.886108 288.281158,288.205292 282.023071,271.472107 
	C280.012817,266.097107 280.762939,265.194397 286.432892,265.066498 
	C293.926575,264.897461 295.948059,266.712311 298.954407,275.702667 
	C303.234009,288.500732 307.644165,301.255188 312.495605,315.486328 
	C316.047760,307.531494 319.213898,300.925720 321.967041,294.152100 
	C325.345245,285.840820 328.315063,277.364227 331.619202,269.021606 
	C332.207275,267.536774 333.563721,266.356293 334.565369,265.035278 
	C335.873199,266.367371 337.753296,267.469666 338.395477,269.069031 
	C342.403687,279.051544 346.089996,289.162689 349.978577,299.194122 
	C351.767609,303.809418 353.773468,308.340637 356.262970,314.303955 
	C359.545776,305.928040 362.337372,298.937256 365.026978,291.907471 
	C367.954559,284.255768 370.712250,276.538452 373.696320,268.909271 
	C375.003265,265.567810 385.402252,263.091125 387.911194,265.632050 
	C388.727020,266.458282 388.795319,268.745483 388.306732,270.019897 
	C385.039856,278.541107 381.353943,286.902893 378.139069,295.442505 
	C372.945801,309.237274 368.016449,323.131317 362.957825,336.976929 
	C362.413300,338.467377 361.922913,340.020935 361.099457,341.355133 
	C360.087219,342.995270 358.751404,344.435699 357.555420,345.962463 
	C356.074310,344.360168 353.999939,343.006500 353.207550,341.115601 
	C347.695282,327.961639 342.456757,314.693115 337.106567,301.470978 
	C336.510925,299.998962 335.764954,298.587830 334.614502,296.139130 
	C330.792938,305.628845 327.452759,314.148285 323.935364,322.593842 
	C320.460938,330.936249 316.807312,339.204041 313.232300,347.504547 
	C312.438293,347.434296 311.644257,347.364075 310.850250,347.293823 
	C307.601105,338.991058 304.351929,330.688293 301.063019,321.986389 
z"/>
<path fill="#F7F6F3" opacity="1.000000" stroke="none" 
	d="
M191.058807,306.872589 
	C189.345505,284.813385 205.837097,267.414917 224.902786,264.384308 
	C248.478577,260.636841 267.643066,272.622925 273.692322,296.148346 
	C277.401764,310.574280 272.881805,324.111145 262.618317,334.509705 
	C244.778503,352.584198 217.500900,350.318115 201.242477,332.323853 
	C195.110062,325.536743 191.040787,317.061218 191.058807,306.872589 
M218.515182,330.116791 
	C225.185211,334.498474 232.707779,335.447510 240.023560,333.377625 
	C257.802826,328.347321 263.343658,311.338501 259.295532,295.760162 
	C255.376724,280.679413 240.713120,274.556976 226.793045,277.225647 
	C216.366486,279.224548 208.811752,285.514404 205.925690,296.439545 
	C202.241623,310.385437 206.793381,321.306274 218.515182,330.116791 
z"/>
<path fill="#F8F6F3" opacity="1.000000" stroke="none" 
	d="
M650.828735,265.700562 
	C659.878296,263.486847 668.531006,263.170166 677.219849,266.003357 
	C691.475098,270.651550 704.367676,285.215454 705.147461,301.514984 
	C705.935730,317.994293 700.054321,330.648529 686.684265,339.603363 
	C671.729553,349.619537 651.514709,349.258545 636.530212,337.187134 
	C625.542236,328.335175 620.981995,316.645599 621.337524,303.601776 
	C621.823792,285.755646 633.022766,271.399963 650.828735,265.700562 
M639.867615,321.514282 
	C647.312622,332.868988 658.816772,336.141083 671.341187,333.193146 
	C686.550354,329.613312 694.928528,312.170685 690.423462,296.760773 
	C687.337158,286.203827 677.457275,275.707275 661.213379,276.796814 
	C649.156067,277.605560 639.303284,285.546753 635.984802,296.683258 
	C633.444702,305.207672 634.719543,313.355713 639.867615,321.514282 
z"/>
<path fill="#F7F5F2" opacity="1.000000" stroke="none" 
	d="
M405.076111,342.718079 
	C402.937286,316.329559 404.629700,290.398865 403.983002,262.950806 
	C407.090729,264.299744 408.942139,264.566895 409.969025,265.630310 
	C423.429993,279.569550 436.801514,293.595703 450.122467,307.669159 
	C452.439178,310.116699 454.418976,312.883087 457.774292,315.108948 
	C457.879181,313.775330 458.073059,312.441895 458.075256,311.108124 
	C458.097107,297.943512 458.101776,284.778839 458.075287,271.614258 
	C458.069061,268.521545 458.168793,265.223145 462.193329,265.163391 
	C465.819641,265.109497 470.893951,263.151428 471.368134,269.783356 
	C471.483612,271.398621 471.915100,273.002716 471.919861,274.612762 
	C471.971100,291.943146 472.092590,309.275024 471.908905,326.603455 
	C471.842834,332.837646 471.005310,339.063690 470.480804,345.794281 
	C465.966766,347.022156 464.392731,342.579102 462.065430,340.257904 
	C457.576660,335.780823 453.824890,330.574677 449.464813,325.956665 
	C440.251831,316.198669 430.849091,306.619659 421.506592,296.984314 
	C420.745544,296.199432 419.849945,295.545013 418.403229,294.303253 
	C418.193695,296.199707 417.949097,297.392700 417.947266,298.586090 
	C417.927002,311.917725 417.946869,325.249481 417.950226,338.581177 
	C417.951843,344.955200 417.941498,345.094025 411.326691,344.863007 
	C409.235657,344.789948 407.178162,343.757263 405.076111,342.718079 
z"/>
<path fill="#F7F6F4" opacity="1.000000" stroke="none" 
	d="
M719.982056,294.951874 
	C719.982056,284.805786 719.982056,274.659698 719.982056,262.854187 
	C723.206177,264.718781 725.979919,265.600952 727.731018,267.450989 
	C740.514343,280.956787 753.057495,294.689545 765.771545,308.261597 
	C767.726257,310.348175 770.168701,311.977783 773.102539,314.414215 
	C773.102539,302.845917 773.104248,291.979553 773.101257,281.113159 
	C773.100525,278.448761 773.026001,275.783020 773.086304,273.120178 
	C773.243347,266.183624 778.732239,262.506561 785.124939,265.260162 
	C786.067993,265.666412 786.860596,267.601349 786.865356,268.832367 
	C786.964844,294.469208 786.940430,320.106567 786.940430,346.159332 
	C781.043030,345.270721 778.446106,340.594513 775.032776,337.034973 
	C774.484497,336.463257 774.188232,335.650909 773.643555,335.074341 
	C760.726807,321.401001 747.791870,307.744720 734.387146,293.585571 
	C733.873596,299.765961 733.130676,305.346344 733.006897,310.940430 
	C732.789490,320.761047 732.822998,330.592651 733.022766,340.414124 
	C733.094482,343.939087 731.910461,345.316162 728.425354,344.961395 
	C726.612244,344.776764 724.714905,345.180237 722.951904,344.831482 
	C721.904541,344.624237 720.262695,343.508209 720.225952,342.737122 
	C719.974426,337.450195 720.076782,332.146454 720.024780,325.968750 
	C719.983643,315.043579 719.982849,304.997711 719.982056,294.951874 
z"/>
<path fill="#F8F7F4" opacity="1.000000" stroke="none" 
	d="
M132.986816,320.212646 
	C133.310638,326.593079 133.885773,332.500122 133.885696,338.407135 
	C133.885620,344.124298 126.879974,348.043335 122.565498,344.406250 
	C120.599457,342.748871 120.179321,338.538330 120.119240,335.465118 
	C119.871971,322.816986 119.910507,310.159210 120.083366,297.508240 
	C120.207367,288.432861 120.921661,279.362976 120.933853,270.290039 
	C120.938232,267.029755 122.527298,265.202667 124.997437,265.245453 
	C137.020966,265.453796 149.190186,265.085419 161.011292,266.877380 
	C172.156677,268.566925 178.118866,276.813385 178.874985,288.141632 
	C179.429749,296.453094 175.695496,307.422668 165.031097,312.386719 
	C163.715240,312.999207 162.439270,313.697388 161.089035,314.384216 
	C168.014694,324.220886 174.935303,334.050354 182.600403,344.937256 
	C176.915436,344.937256 173.019836,345.408966 169.320251,344.761200 
	C167.084824,344.369781 164.515671,342.689362 163.197708,340.814148 
	C157.898193,333.274017 153.039398,325.424622 147.992615,317.705994 
	C146.334274,315.169678 135.941498,313.454193 133.984100,315.609894 
	C133.148788,316.529816 133.289383,318.335815 132.986816,320.212646 
M165.070526,287.509644 
	C164.471680,282.804810 161.834274,278.983124 157.466400,278.178131 
	C151.240692,277.030762 144.757584,277.174774 138.378357,277.023712 
	C136.198486,276.972137 133.865906,277.220154 133.946930,280.656921 
	C134.121536,288.062500 134.000595,295.475006 134.000595,304.043243 
	C140.685532,304.043243 146.884613,304.039246 153.083679,304.044250 
	C160.992981,304.050629 167.512924,295.728577 165.070526,287.509644 
z"/>
<path fill="#F8F7F3" opacity="1.000000" stroke="none" 
	d="
M821.946899,322.000610 
	C821.946838,325.812073 821.946838,329.127502 821.946838,332.743866 
	C823.018066,332.854431 823.950256,333.011414 824.886169,333.037964 
	C836.626770,333.371155 848.366699,333.839752 860.109314,333.922821 
	C864.353455,333.952881 864.083679,336.407227 863.934692,339.172913 
	C863.792725,341.810883 864.982544,345.326172 860.182312,344.962830 
	C859.519775,344.912689 858.850098,344.956696 858.183716,344.956512 
	C844.522949,344.953064 830.862183,344.961639 817.201416,344.941650 
	C808.604004,344.929047 808.165649,344.569092 808.132263,335.845612 
	C808.056946,316.187866 808.050903,296.529602 808.118652,276.871918 
	C808.128113,274.142395 808.261841,271.243958 809.201843,268.749176 
	C809.785645,267.199768 811.978821,265.236969 813.480164,265.210846 
	C828.469055,264.949860 843.464661,265.117065 858.457458,265.020996 
	C864.054199,264.985138 862.739319,268.863525 863.017517,272.139435 
	C863.332214,275.845490 861.988892,277.091492 858.225647,277.027557 
	C846.347229,276.825653 834.463318,276.953033 822.252625,276.953033 
	C822.252625,284.829803 822.252625,291.581238 822.252625,299.064026 
	C828.077087,299.064026 834.158936,299.064392 840.240784,299.063873 
	C843.905823,299.063538 847.583313,299.252380 851.233032,299.015594 
	C856.544556,298.670990 856.807800,301.802734 857.069946,305.937042 
	C857.367981,310.636444 855.142334,311.063446 851.412048,310.997192 
	C841.778381,310.826080 832.139587,310.939850 821.946960,310.939850 
	C821.946960,314.627197 821.946960,318.065887 821.946899,322.000610 
z"/>
<path fill="#F4F3EF" opacity="1.000000" stroke="none" 
	d="
M457.976990,217.039490 
	C443.925323,217.338684 429.873535,217.631119 415.822144,217.941986 
	C412.479614,218.015915 411.046112,216.352356 411.048248,213.088882 
	C411.066101,185.612503 411.037750,158.136078 411.069397,130.659714 
	C411.073883,126.761642 412.731598,124.832283 417.106323,124.937340 
	C428.091278,125.201141 439.093994,125.249657 450.074921,124.910706 
	C454.750671,124.766373 456.009094,126.499580 455.982849,130.825958 
	C455.857605,151.472672 455.928802,172.120575 455.945740,192.768051 
	C455.946564,193.758316 456.095947,194.748444 456.895691,196.165649 
	C457.768707,201.402878 457.922180,206.213074 458.061707,211.452545 
	C458.024139,213.601028 458.000549,215.320267 457.976990,217.039490 
M438.409302,168.018265 
	C440.069702,168.021713 441.903931,168.468109 443.341553,167.903931 
	C444.777252,167.340515 446.836395,165.793457 446.868500,164.629318 
	C447.146393,154.544876 447.028595,144.449524 447.028595,133.936935 
	C438.753235,133.936935 430.842682,133.826508 422.943237,134.072220 
	C421.918823,134.104080 420.111389,135.955872 420.088470,136.995956 
	C419.869904,146.924088 419.957916,156.858963 419.957916,168.017578 
	C426.058441,168.017578 431.747467,168.017578 438.409302,168.018265 
M447.064758,196.485001 
	C447.064758,190.060547 447.064758,183.636093 447.064758,176.957230 
	C438.761108,176.957230 430.972748,176.824997 423.199249,177.105591 
	C422.085388,177.145782 420.149353,179.150543 420.111694,180.296036 
	C419.844055,188.433807 420.025757,196.585083 419.946442,204.730911 
	C419.915009,207.956711 421.934601,209.550720 424.526093,209.698547 
	C430.981110,210.066711 437.473999,210.117035 443.928619,209.809708 
	C445.028320,209.757339 446.650177,207.414047 446.913696,205.930664 
	C447.400574,203.190018 447.060394,200.302429 447.064758,196.485001 
z"/>
<path fill="#F8F7F4" opacity="1.000000" stroke="none" 
	d="
M102.263702,336.170654 
	C91.824715,344.836914 80.437042,348.138031 67.177025,346.062164 
	C53.218266,343.876892 43.059082,336.853760 36.941532,324.314514 
	C25.341822,300.538391 37.644009,269.121338 66.002693,264.902924 
	C80.072319,262.810059 92.436676,265.030640 102.885681,275.332733 
	C106.050819,278.453400 105.368027,280.588226 102.413559,283.017303 
	C97.135086,287.357025 95.017868,287.806396 91.215050,283.386536 
	C83.240547,274.118073 63.195869,275.683685 54.722519,283.606842 
	C46.733414,291.077240 44.738934,300.398651 46.282009,310.362915 
	C48.151669,322.436005 55.735031,330.785400 67.501923,333.638519 
	C78.392456,336.279175 88.205811,332.761017 95.455147,323.912964 
	C105.703735,328.840210 107.005043,331.117584 102.263702,336.170654 
z"/>
<path fill="#F9F7F3" opacity="1.000000" stroke="none" 
	d="
M534.638000,340.788330 
	C523.187378,349.646606 500.203430,347.071899 491.049530,336.688446 
	C487.499298,332.661316 489.649811,330.832703 492.284760,328.227417 
	C494.937347,325.604614 496.979156,323.257233 500.747986,327.188110 
	C508.092407,334.848328 516.754333,336.342987 524.571716,332.167877 
	C528.269531,330.192932 530.132019,327.429016 530.110107,323.162872 
	C530.088440,318.933685 527.881104,316.425018 524.265503,315.012207 
	C517.997620,312.562927 511.583893,310.477631 505.363678,307.918060 
	C497.587311,304.718201 491.609741,299.179382 490.250122,290.806000 
	C488.977203,282.966705 491.070770,274.943878 497.761444,270.093903 
	C508.070343,262.621094 519.676697,261.743835 531.302734,267.210876 
	C535.007263,268.952881 538.182922,271.819489 542.529358,274.810669 
	C540.081909,276.787964 538.640930,277.699921 537.518738,278.907990 
	C534.640503,282.006592 532.015625,282.523193 528.243164,279.821075 
	C521.204041,274.779053 512.164612,274.864349 507.061401,279.355072 
	C500.988007,284.699554 503.184662,292.680298 511.563171,296.055023 
	C518.973816,299.039978 526.578735,301.684357 533.645081,305.351624 
	C546.562073,312.055298 546.594543,329.995239 536.671753,338.768921 
	C536.049255,339.319397 535.497681,339.950043 534.638000,340.788330 
z"/>
<path fill="#F8F7F4" opacity="1.000000" stroke="none" 
	d="
M590.932007,323.998352 
	C590.923523,329.159180 590.886658,333.820862 590.936768,338.481659 
	C590.982544,342.741028 589.744568,345.301880 584.678711,345.013184 
	C578.377808,344.654083 577.101624,343.872528 577.092590,338.184814 
	C577.061218,318.378906 577.080444,298.572906 577.080444,277.608826 
	C571.242188,277.402527 565.457153,277.194489 559.671814,276.995087 
	C556.150330,276.873688 551.919189,277.979492 552.071838,272.059662 
	C552.195923,267.246429 554.399597,265.138489 559.911438,265.050873 
	C564.549072,264.977173 569.188354,264.980225 573.826782,264.987305 
	C585.979187,265.005829 598.131592,265.082703 610.283875,265.056580 
	C614.797546,265.046875 616.921387,267.103394 616.946594,271.651611 
	C616.970032,275.884521 615.226196,278.011322 610.838013,277.944580 
	C604.376709,277.846283 597.912842,277.919189 590.941528,277.919189 
	C590.941528,293.329407 590.941528,308.414124 590.932007,323.998352 
z"/>
<path fill="#F5F4F0" opacity="1.000000" stroke="none" 
	d="
M316.017212,424.807129 
	C313.324219,428.876068 310.696259,432.553650 307.698029,436.749359 
	C310.408752,437.981323 313.080536,439.248047 315.795776,440.413483 
	C318.096039,441.400818 318.886749,442.459351 316.865906,444.687805 
	C313.406342,448.502838 311.103058,448.788025 306.922577,445.378113 
	C302.957336,442.143768 299.562714,439.360901 293.276367,440.629456 
	C284.565826,442.387238 271.342712,431.011230 270.043915,422.574829 
	C267.267670,404.541718 276.540955,395.204742 292.154510,393.320312 
	C300.620789,392.298523 308.594330,396.248199 313.562836,403.481232 
	C317.836578,409.702911 320.422272,416.824982 316.017212,424.807129 
M296.200470,401.924072 
	C295.040527,401.945465 293.869659,402.080688 292.722412,401.970215 
	C283.590271,401.090729 278.570282,407.289581 278.079590,413.557922 
	C277.254822,424.093933 280.031555,429.510284 288.484772,432.700745 
	C291.239105,433.740295 294.871063,434.274475 296.801727,429.952820 
	C297.387512,428.641571 300.160309,428.246338 301.982300,427.568329 
	C303.337921,427.063873 305.343933,427.238007 306.082428,426.321747 
	C310.155334,421.268524 309.926636,415.431458 307.890778,409.733307 
	C306.154938,404.874817 302.142303,402.526337 296.200470,401.924072 
z"/>
<path fill="#F6F4EF" opacity="1.000000" stroke="none" 
	d="
M578.379395,394.068787 
	C581.183594,395.683502 584.114929,396.828979 585.832886,398.954987 
	C593.471985,408.408325 589.234009,415.738556 579.963989,422.765747 
	C582.571289,426.621826 585.262939,430.428345 587.751770,434.363159 
	C588.859192,436.113983 589.557922,438.123322 590.442139,440.015259 
	C587.632263,439.505371 584.131897,439.855560 582.174133,438.284027 
	C579.234497,435.924286 577.153503,432.354919 575.112366,429.049774 
	C572.322693,424.532349 569.094788,421.444794 563.347290,423.302856 
	C562.943359,427.674469 562.399780,432.026794 562.181335,436.395355 
	C561.999634,440.028442 559.752563,440.068939 557.056519,439.996613 
	C553.761353,439.908173 554.048584,437.717560 554.054321,435.489594 
	C554.085999,423.177979 554.176453,410.864807 554.007935,398.555481 
	C553.960205,395.068878 555.054016,393.834503 558.579163,393.963165 
	C565.027954,394.198517 571.490906,394.043274 578.379395,394.068787 
M581.067749,408.437408 
	C579.840332,406.316925 579.044678,402.910797 577.301758,402.325500 
	C572.712708,400.784546 567.671814,399.658661 562.943665,402.752808 
	C562.943665,405.934753 562.815247,409.091034 563.016418,412.226166 
	C563.082825,413.261414 563.738647,414.676819 564.570557,415.176392 
	C569.539917,418.160492 579.005981,414.679810 581.067749,408.437408 
z"/>
<path fill="#F6F3F0" opacity="1.000000" stroke="none" 
	d="
M455.825745,417.640167 
	C454.192322,419.346863 452.802856,420.776184 451.105530,422.522186 
	C452.728424,425.146484 454.435364,427.972900 456.209381,430.756592 
	C457.971008,433.520874 459.800079,436.242157 461.690308,439.120514 
	C455.098785,441.781586 452.027740,437.992767 449.047546,434.196960 
	C447.662811,432.433289 446.160461,430.609924 445.372437,428.559601 
	C443.362610,423.329926 439.638306,421.982666 433.945068,423.274353 
	C433.945068,427.105377 433.980652,431.201843 433.932922,435.297333 
	C433.899689,438.149780 433.288147,440.143341 429.535858,440.080200 
	C425.968140,440.020264 424.795441,438.767700 425.055664,435.359833 
	C425.493164,429.630463 425.862976,423.888611 426.001984,418.145721 
	C426.162872,411.499176 426.185181,404.841675 425.986847,398.197327 
	C425.885925,394.816162 427.254333,393.857849 430.411713,393.977295 
	C435.358337,394.164459 440.321960,394.168335 445.269623,393.996765 
	C451.615906,393.776703 456.150513,396.715393 458.866608,402.097290 
	C461.245361,406.810822 460.279663,411.517151 457.046265,415.713867 
	C456.659271,416.216156 456.392334,416.810913 455.825745,417.640167 
M442.967194,415.606110 
	C443.909515,415.421295 444.844666,415.136719 445.795380,415.068176 
	C451.099976,414.685669 451.059265,410.882446 451.113403,407.009766 
	C451.167877,403.111725 449.129303,401.789856 445.521210,401.894409 
	C441.788025,402.002625 438.049286,401.918488 434.357849,401.918488 
	C432.892487,415.071228 433.473267,416.082886 442.967194,415.606110 
z"/>
<path fill="#F4F3EE" opacity="1.000000" stroke="none" 
	d="
M327.049957,419.084473 
	C327.049103,411.483612 327.145355,404.353210 327.000275,397.227722 
	C326.940765,394.304993 327.791321,392.966949 330.932281,393.033295 
	C333.845978,393.094879 335.081970,394.001404 335.006134,397.113434 
	C334.827911,404.426025 334.809814,411.750488 335.030060,419.061035 
	C335.120850,422.075348 335.535767,425.240753 336.606934,428.028656 
	C338.406769,432.713043 342.555695,433.788818 347.069122,432.956024 
	C352.106140,432.026581 354.963348,428.300995 355.026337,422.877869 
	C355.122925,414.564087 355.090118,406.248291 355.041260,397.933746 
	C355.025696,395.284424 354.871826,392.924042 358.733765,393.011932 
	C362.193024,393.090607 364.080292,394.308411 363.950134,397.943451 
	C363.613953,407.330109 363.977325,416.807892 362.760345,426.078522 
	C361.512573,435.583374 354.062134,441.006561 344.456726,440.783569 
	C333.144470,440.520966 326.810822,431.409882 327.039795,424.046753 
	C327.086273,422.551483 327.048706,421.053589 327.049957,419.084473 
z"/>
<path fill="#F4F3EE" opacity="1.000000" stroke="none" 
	d="
M532.578918,432.073547 
	C536.185486,432.144989 539.399170,431.900360 542.450195,432.493225 
	C543.502197,432.697632 545.095398,435.326904 544.765625,436.249207 
	C544.229065,437.749512 542.348694,439.761353 540.974609,439.809204 
	C531.990540,440.122223 522.987427,440.062103 513.998413,439.825867 
	C512.994202,439.799500 511.201782,437.912415 511.187866,436.869385 
	C510.999512,422.755585 511.061432,408.638489 511.061432,394.217743 
	C519.982544,393.819305 528.509155,393.379089 537.041199,393.111176 
	C538.608582,393.061981 540.380737,393.388641 541.717773,394.144440 
	C542.741882,394.723358 543.881165,396.310669 543.788269,397.343231 
	C543.674622,398.605225 542.435791,400.691986 541.495361,400.801147 
	C535.964539,401.443146 530.380127,401.638184 524.810913,401.927368 
	C523.020447,402.020355 521.221008,401.941925 519.471558,401.941925 
	C518.214600,411.434845 518.214600,411.434845 526.415771,415.966125 
	C522.756836,420.567200 514.611267,423.649475 521.207703,432.086060 
	C524.178040,432.086060 528.150146,432.086060 532.578918,432.073547 
z"/>
<path fill="#F5F3EF" opacity="1.000000" stroke="none" 
	d="
M380.033203,422.000732 
	C384.643127,411.935028 389.204010,402.252380 393.764862,392.569733 
	C394.355652,392.665588 394.946442,392.761414 395.537201,392.857239 
	C403.112854,408.282562 410.688507,423.707886 418.305511,439.217438 
	C412.387848,440.657410 409.728516,441.019012 407.134338,434.206451 
	C405.852173,430.839264 403.755646,429.769745 400.452240,429.968750 
	C398.293518,430.098816 396.097565,430.195923 393.958313,429.953857 
	C387.923798,429.271027 383.163788,430.148987 381.114929,437.118042 
	C380.697540,438.537750 377.000854,438.993378 374.815857,439.893433 
	C374.555756,438.105072 373.602631,436.050934 374.167206,434.578888 
	C375.775024,430.386810 378.001282,426.431976 380.033203,422.000732 
M391.773163,423.046539 
	C394.730438,423.046539 397.687744,423.046539 401.511536,423.046539 
	C399.074463,418.005188 396.903046,413.513397 394.493011,408.528015 
	C392.705780,412.683960 391.043945,416.172028 389.767365,419.795746 
	C389.468384,420.644409 390.473724,421.952515 391.773163,423.046539 
z"/>
<path fill="#F5F4F0" opacity="1.000000" stroke="none" 
	d="
M602.274048,412.499969 
	C599.393127,407.356110 600.096497,402.977509 603.644287,398.871918 
	C608.009521,393.820465 613.434692,392.029053 619.908264,393.481506 
	C621.132141,393.756134 622.247437,394.482178 623.448486,394.896545 
	C630.132629,397.202545 630.528503,399.190857 625.219788,403.956268 
	C619.721252,400.319885 613.819702,399.755432 610.898987,402.586548 
	C607.921204,405.472839 608.164062,408.033203 611.810974,409.985535 
	C616.331848,412.405701 620.947144,414.650360 625.535217,416.943726 
	C630.556091,419.453430 632.707397,423.513916 631.934204,429.027679 
	C631.142334,434.674683 627.212402,438.066254 622.347900,439.650421 
	C614.695984,442.142334 607.522949,440.654205 602.031006,434.306244 
	C601.109802,433.241486 601.170410,431.327332 600.777283,429.805664 
	C602.636475,429.564911 604.648865,428.753265 606.322998,429.202301 
	C609.803223,430.135803 613.092773,432.693329 616.482849,432.734131 
	C618.809082,432.762115 622.038513,430.096588 623.159302,427.802216 
	C623.730896,426.632172 621.014954,422.882202 618.969116,421.597534 
	C613.704712,418.291687 607.985168,415.710663 602.274048,412.499969 
z"/>
<path fill="#FBFDFD" opacity="1.000000" stroke="none" 
	d="
M457.991119,217.027786 
	C458.000549,215.320267 458.024139,213.601028 458.389099,211.390656 
	C459.486633,209.599396 460.242706,208.299255 461.242798,206.831940 
	C461.655823,206.111847 461.824860,205.558929 462.157104,204.763794 
	C462.865143,204.354492 463.410004,204.187408 463.977448,204.298340 
	C464.255157,205.048584 464.510254,205.520782 464.842834,206.362366 
	C464.947845,207.485641 464.975403,208.239517 464.774597,209.092224 
	C464.270355,209.394775 464.074554,209.658035 463.636963,210.036438 
	C463.118500,210.898956 462.921875,211.705856 462.725250,212.512772 
	C463.150574,212.012970 463.575897,211.513153 464.342651,211.010925 
	C465.459412,210.663162 466.234772,210.317825 467.438049,210.004303 
	C469.578857,210.090225 471.291687,210.144348 473.299164,210.439224 
	C476.060883,210.520065 478.527954,210.360123 481.415985,210.123032 
	C483.545746,209.997452 485.254608,209.949005 487.194550,210.195190 
	C489.590027,209.886169 492.951691,214.558182 494.349579,208.931763 
	C497.904053,204.751846 494.508820,205.200333 491.846008,204.991760 
	C491.652130,204.975540 491.263123,204.983475 491.181091,204.531158 
	C491.139160,195.862564 491.179260,187.646286 491.610779,179.319061 
	C493.398407,177.586929 494.794708,175.965729 495.667053,174.952850 
	C494.095428,172.402176 493.049530,170.704727 492.009125,168.638306 
	C491.671997,167.176437 491.329437,166.083511 491.017853,164.541809 
	C491.113464,161.398117 491.178101,158.703247 491.643646,156.004089 
	C495.493561,156.202301 495.392456,153.623901 494.812317,151.679611 
	C494.504211,150.646973 492.487213,150.124222 491.157959,148.952194 
	C491.048248,144.023895 491.022217,139.514709 491.254578,135.013611 
	C491.685242,135.015091 491.857483,135.008499 492.407898,135.007614 
	C494.419434,135.490646 496.052765,135.967941 498.315186,136.629089 
	C496.895172,137.714706 496.170410,138.268768 496.260712,138.199753 
	C496.927765,140.821060 497.403534,142.945663 498.018982,145.028992 
	C498.516632,146.713562 499.182434,148.348450 499.773651,150.005386 
	C499.825775,154.695633 499.877899,159.385895 499.482788,164.547363 
	C498.481689,165.479675 497.440857,165.944855 497.444702,166.401245 
	C497.566498,180.842300 497.821655,195.282166 497.983795,209.723007 
	C498.061829,216.673233 497.994415,216.651306 490.832977,217.016571 
	C489.886108,217.064865 488.958130,217.483551 488.021423,217.730698 
	C487.561737,217.788040 487.102081,217.845367 485.970001,217.580231 
	C476.188690,217.177750 467.079742,217.097748 457.970825,217.017761 
	C457.970825,217.017761 458.005280,217.016083 457.991119,217.027786 
z"/>
<path fill="#F2F0EC" opacity="1.000000" stroke="none" 
	d="
M125.038193,407.977478 
	C121.713501,407.969940 118.854309,408.187500 116.064415,407.843353 
	C114.966469,407.707886 114.023285,406.317841 113.009613,405.499146 
	C114.031967,404.684235 114.955544,403.651703 116.109955,403.127655 
	C116.938408,402.751648 118.075424,403.055756 119.074768,403.055786 
	C159.548386,403.057892 200.022003,403.071808 240.495590,403.039246 
	C243.709061,403.036682 246.863876,402.781586 245.749191,407.977692 
	C205.756866,407.977692 165.644150,407.977692 125.038193,407.977478 
z"/>
<path fill="#F2F1EB" opacity="1.000000" stroke="none" 
	d="
M708.000000,403.049011 
	C732.958862,403.051361 757.417908,403.009644 781.876160,403.133301 
	C784.008362,403.144104 786.135071,404.243103 788.264404,404.836670 
	C788.223999,405.510406 788.183655,406.184143 788.143250,406.857880 
	C786.583252,407.222412 785.023743,407.903168 783.463257,407.905365 
	C742.532227,407.963348 701.601135,407.976807 660.670410,407.850128 
	C659.139587,407.845398 657.613342,406.360260 656.084961,405.565002 
	C657.582947,404.731476 659.072693,403.190857 660.580200,403.173279 
	C676.218506,402.990997 691.859619,403.054077 708.000000,403.049011 
z"/>
<path fill="#F4F3EF" opacity="1.000000" stroke="none" 
	d="
M482.493713,439.735779 
	C481.429535,436.606964 480.248718,433.679321 480.170105,430.722382 
	C479.918976,421.277893 480.076935,411.822479 480.076935,402.081970 
	C476.264160,401.692261 472.711761,401.503387 469.239105,400.874359 
	C468.109894,400.669800 466.550415,399.442963 466.351868,398.450745 
	C466.152283,397.453308 467.121948,395.703674 468.085846,395.119019 
	C469.376465,394.336243 471.151459,394.096588 472.724121,394.077148 
	C480.705872,393.978546 488.689423,394.025757 496.672363,394.023468 
	C503.694122,394.021454 503.694122,394.022400 501.437256,400.652008 
	C497.422211,401.165588 493.406616,401.678802 488.954102,402.247894 
	C488.954102,412.826843 488.696960,423.438843 489.067841,434.028839 
	C489.240753,438.966400 487.641724,440.780334 482.493713,439.735779 
z"/>
<path fill="#FAF8F6" opacity="1.000000" stroke="none" 
	d="
M457.276337,132.018936 
	C457.224731,130.946091 457.173126,129.873245 457.474243,128.381348 
	C458.218964,127.640869 458.610992,127.319443 459.471436,126.999008 
	C466.757874,127.000008 473.575897,127.000008 480.393951,127.000008 
	C480.422974,127.752724 480.451996,128.505447 480.480988,129.258163 
	C476.773468,129.505264 473.043030,129.580994 469.368011,130.071671 
	C467.527374,130.317444 465.787750,131.319748 464.019836,132.283234 
	C464.362457,133.059830 464.687714,133.533096 464.975311,134.342957 
	C464.876801,135.124527 464.815948,135.569489 464.617737,136.108185 
	C464.298431,136.541000 464.391479,136.802399 464.840942,137.317169 
	C464.869934,138.096466 464.817596,138.544708 464.560730,138.996826 
	C464.356201,139.000671 463.947815,139.024536 463.620239,139.069595 
	C463.516998,140.069855 463.741302,141.025055 463.977875,142.360016 
	C463.982117,143.499496 463.974091,144.259232 463.636719,145.064453 
	C463.525452,146.068802 463.743469,147.027649 464.165771,147.994339 
	C464.369995,148.002182 464.778748,148.007095 464.858521,148.378296 
	C464.886414,149.503250 464.834564,150.257019 464.643311,151.104843 
	C464.596924,151.462494 464.689911,151.726089 464.861969,152.447632 
	C464.883636,156.934525 464.826294,160.963470 464.565308,164.992599 
	C464.361694,164.992798 463.955017,165.014938 463.588501,165.011169 
	C462.247528,165.246414 461.273102,165.485458 460.298645,165.724503 
	C460.266602,166.117142 460.234528,166.509796 460.202454,166.902451 
	C461.452881,167.262039 462.703278,167.621628 464.109406,168.209259 
	C464.846283,168.285034 465.427429,168.132767 466.409546,168.009018 
	C467.877533,168.091232 468.944550,168.144943 470.200378,168.407532 
	C470.928925,168.748245 471.468628,168.880096 472.003479,169.411728 
	C471.450745,170.840103 471.028107,172.657135 470.334290,172.767380 
	C466.289093,173.410126 462.180328,173.652481 458.072235,173.637619 
	C457.793518,169.838455 457.535583,166.431763 457.277649,163.025055 
	C457.218994,160.631653 457.160400,158.238235 457.387756,155.205322 
	C457.538818,153.717972 457.403900,152.870148 457.269012,152.022308 
	C457.210876,145.981216 457.152740,139.940140 457.317932,133.346802 
	C457.721283,132.462540 457.632965,132.204010 457.276337,132.018936 
M460.818390,130.964462 
	C460.724487,130.563156 460.630554,130.161850 460.536621,129.760529 
	C460.417114,129.848190 460.186768,129.951111 460.196381,130.021027 
	C460.252441,130.428375 460.364807,130.827988 460.818390,130.964462 
z"/>
<path fill="#FAF8F6" opacity="1.000000" stroke="none" 
	d="
M460.998779,206.999115 
	C460.242706,208.299255 459.486633,209.599396 458.403107,210.961395 
	C457.922180,206.213074 457.768707,201.402878 457.322968,196.297180 
	C457.054749,190.977066 457.078766,185.952454 457.475861,180.471863 
	C458.230560,180.010391 458.612244,180.004883 459.406799,179.999695 
	C461.469543,179.997559 463.119446,179.995117 464.855225,180.365112 
	C464.889160,181.496384 464.837250,182.255219 464.539520,183.337311 
	C464.453918,187.768524 464.614136,191.876465 464.852234,196.410004 
	C464.877441,198.561874 464.824768,200.288147 464.566040,202.206146 
	C464.224915,202.938675 464.089874,203.479492 463.954834,204.020325 
	C463.410004,204.187408 462.865143,204.354492 461.866425,204.793945 
	C461.274628,205.710587 461.136719,206.354858 460.998779,206.999115 
z"/>
<path fill="#FBFDFD" opacity="1.000000" stroke="none" 
	d="
M464.769318,179.992676 
	C463.119446,179.995117 461.469543,179.997559 459.395966,179.601440 
	C458.409973,178.424667 457.847687,177.646484 457.285400,176.868301 
	C457.112732,176.593491 457.088623,176.306061 457.540314,175.436676 
	C457.942719,174.588242 458.017853,174.309174 458.093018,174.030090 
	C462.180328,173.652481 466.289093,173.410126 470.334290,172.767380 
	C471.028107,172.657135 471.450745,170.840103 472.206970,169.328339 
	C472.680084,168.694992 472.874695,168.480988 473.370789,168.127701 
	C474.495667,168.103149 475.248932,168.154053 476.097015,168.348083 
	C476.460419,168.396332 476.729034,168.301468 477.441345,168.131165 
	C480.581055,168.015656 483.276978,167.975586 486.196167,168.220856 
	C487.608093,168.680664 488.796783,168.855148 490.145935,169.375214 
	C490.536407,171.477814 490.766418,173.234848 490.528168,174.993896 
	C482.512268,174.997757 474.964264,174.959061 467.417328,175.030975 
	C465.605652,175.048264 462.593781,174.509048 465.025635,178.357391 
	C464.896454,179.119904 464.832886,179.556290 464.769318,179.992676 
z"/>
<path fill="#FBFDFD" opacity="1.000000" stroke="none" 
	d="
M464.002441,131.979904 
	C465.787750,131.319748 467.527374,130.317444 469.368011,130.071671 
	C473.043030,129.580994 476.773468,129.505264 480.480988,129.258163 
	C480.451996,128.505447 480.422974,127.752724 480.393951,127.000008 
	C473.575897,127.000008 466.757874,127.000008 459.473633,126.704239 
	C459.009247,126.015427 459.011078,125.622375 459.012878,125.229324 
	C470.704498,125.169571 482.396118,125.109818 494.753906,125.336914 
	C495.988220,125.732285 496.556305,125.840805 497.124420,125.949318 
	C497.711304,126.096428 498.298157,126.243546 498.550964,126.854843 
	C496.056091,127.319023 493.895264,127.319023 492.006104,127.319023 
	C492.006104,128.989456 492.006104,130.492706 491.536743,131.992920 
	C482.045746,131.986557 473.024078,131.983231 464.002441,131.979904 
z"/>
<path fill="#FAF8F6" opacity="1.000000" stroke="none" 
	d="
M488.470764,217.820526 
	C488.958130,217.483551 489.886108,217.064865 490.832977,217.016571 
	C497.994415,216.651306 498.061829,216.673233 497.983795,209.723007 
	C497.821655,195.282166 497.566498,180.842300 497.444702,166.401245 
	C497.440857,165.944855 498.481689,165.479675 499.398041,165.006287 
	C499.813080,181.480316 499.818390,197.967056 499.965271,214.452530 
	C499.989349,217.152496 498.868683,218.010513 496.415894,217.940796 
	C493.919067,217.869781 491.418854,217.915665 488.470764,217.820526 
z"/>
<path fill="#FAF8F6" opacity="1.000000" stroke="none" 
	d="
M492.006104,131.995972 
	C492.006104,130.492706 492.006104,128.989456 492.006104,127.319023 
	C493.895264,127.319023 496.056091,127.319023 498.525238,127.167168 
	C499.203979,134.370804 499.574371,141.726288 499.859222,149.543579 
	C499.182434,148.348450 498.516632,146.713562 498.018982,145.028992 
	C497.403534,142.945663 496.927765,140.821060 496.260712,138.199753 
	C496.170410,138.268768 496.895172,137.714706 498.315186,136.629089 
	C496.052765,135.967941 494.419434,135.490646 492.399719,134.631897 
	C492.010956,133.498978 492.008514,132.747467 492.006104,131.995972 
z"/>
<path fill="#F6F4EF" opacity="1.000000" stroke="none" 
	d="
M532.986145,417.809509 
	C533.656860,415.947784 534.335022,414.496643 535.013184,413.045502 
	C536.355225,414.088684 538.258911,414.884979 538.860657,416.253662 
	C539.337158,417.337494 538.216614,419.123535 537.805237,420.597748 
	C536.201355,419.805206 534.597412,419.012634 532.986145,417.809509 
z"/>
<path fill="#FBFDFD" opacity="1.000000" stroke="none" 
	d="
M719.581177,295.139038 
	C719.982849,304.997711 719.983643,315.043579 719.985840,325.559937 
	C719.657593,325.383972 719.041382,324.737518 719.041321,324.090973 
	C719.039673,314.502716 719.119629,304.914490 719.581177,295.139038 
z"/>
<path fill="#FAF8F6" opacity="1.000000" stroke="none" 
	d="
M458.186218,217.397705 
	C467.079742,217.097748 476.188690,217.177750 485.629791,217.497665 
	C476.775208,217.750931 467.588409,217.764297 458.186218,217.397705 
z"/>
<path fill="#F4F3EF" opacity="1.000000" stroke="none" 
	d="
M458.072235,173.637634 
	C458.017853,174.309174 457.942719,174.588242 457.677307,175.258850 
	C457.356293,171.742157 457.225555,167.833923 457.186218,163.475372 
	C457.535583,166.431763 457.793518,169.838455 458.072235,173.637634 
z"/>
<path fill="#F4F3EF" opacity="1.000000" stroke="none" 
	d="
M457.190308,177.173492 
	C457.847687,177.646484 458.409973,178.424667 458.983093,179.601120 
	C458.612244,180.004883 458.230560,180.010391 457.562592,180.012848 
	C457.215912,179.166092 457.155548,178.322388 457.190308,177.173492 
z"/>
<path fill="#F4F3EF" opacity="1.000000" stroke="none" 
	d="
M458.683502,125.217766 
	C459.011078,125.622375 459.009247,126.015427 459.005219,126.703247 
	C458.610992,127.319443 458.218964,127.640869 457.561859,127.986366 
	C457.649231,127.075691 458.001678,126.140953 458.683502,125.217766 
z"/>
<path fill="#F4F3EF" opacity="1.000000" stroke="none" 
	d="
M457.178040,152.384125 
	C457.403900,152.870148 457.538818,153.717972 457.471863,154.763580 
	C457.209015,154.222885 457.148041,153.484406 457.178040,152.384125 
z"/>
<path fill="#F4F3EF" opacity="1.000000" stroke="none" 
	d="
M496.996552,125.649139 
	C496.556305,125.840805 495.988220,125.732285 495.218597,125.409912 
	C495.634277,125.247009 496.251495,125.297981 496.996552,125.649139 
z"/>
<path fill="#F4F3EF" opacity="1.000000" stroke="none" 
	d="
M457.192749,132.256989 
	C457.632965,132.204010 457.721283,132.462540 457.405182,132.884094 
	C457.215790,132.814133 457.162476,132.654587 457.192749,132.256989 
z"/>
<path fill="#000000" opacity="1.000000" stroke="none" 
	d="
M546.099609,82.929077 
	C546.452881,88.788887 546.804871,94.159119 547.210632,100.350594 
	C543.933289,97.607590 540.934143,95.623764 538.663879,93.007439 
	C537.213440,91.335869 536.082886,88.716553 536.118286,86.543449 
	C536.260071,77.831917 536.913208,69.128700 537.390808,60.168297 
	C540.003174,60.168297 542.754150,60.168297 546.098267,60.168297 
	C546.098267,67.578812 546.098267,75.009155 546.099609,82.929077 
z"/>
<path fill="#000000" opacity="1.000000" stroke="none" 
	d="
M218.138184,330.071899 
	C206.793381,321.306274 202.241623,310.385437 205.925690,296.439545 
	C208.811752,285.514404 216.366486,279.224548 226.793045,277.225647 
	C240.713120,274.556976 255.376724,280.679413 259.295532,295.760162 
	C263.343658,311.338501 257.802826,328.347321 240.023560,333.377625 
	C232.707779,335.447510 225.185211,334.498474 218.138184,330.071899 
z"/>
<path fill="#000000" opacity="1.000000" stroke="none" 
	d="
M639.606201,321.239563 
	C634.719543,313.355713 633.444702,305.207672 635.984802,296.683258 
	C639.303284,285.546753 649.156067,277.605560 661.213379,276.796814 
	C677.457275,275.707275 687.337158,286.203827 690.423462,296.760773 
	C694.928528,312.170685 686.550354,329.613312 671.341187,333.193146 
	C658.816772,336.141083 647.312622,332.868988 639.606201,321.239563 
z"/>
<path fill="#000000" opacity="1.000000" stroke="none" 
	d="
M165.108307,287.920715 
	C167.512924,295.728577 160.992981,304.050629 153.083679,304.044250 
	C146.884613,304.039246 140.685532,304.043243 134.000595,304.043243 
	C134.000595,295.475006 134.121536,288.062500 133.946930,280.656921 
	C133.865906,277.220154 136.198486,276.972137 138.378357,277.023712 
	C144.757584,277.174774 151.240692,277.030762 157.466400,278.178131 
	C161.834274,278.983124 164.471680,282.804810 165.108307,287.920715 
z"/>
<path fill="#000000" opacity="1.000000" stroke="none" 
	d="
M437.922913,168.017914 
	C431.747467,168.017578 426.058441,168.017578 419.957916,168.017578 
	C419.957916,156.858963 419.869904,146.924088 420.088470,136.995956 
	C420.111389,135.955872 421.918823,134.104080 422.943237,134.072220 
	C430.842682,133.826508 438.753235,133.936935 447.028595,133.936935 
	C447.028595,144.449524 447.146393,154.544876 446.868500,164.629318 
	C446.836395,165.793457 444.777252,167.340515 443.341553,167.903931 
	C441.903931,168.468109 440.069702,168.021713 437.922913,168.017914 
z"/>
<path fill="#000000" opacity="1.000000" stroke="none" 
	d="
M447.064758,196.980530 
	C447.060394,200.302429 447.400574,203.190018 446.913696,205.930664 
	C446.650177,207.414047 445.028320,209.757339 443.928619,209.809708 
	C437.473999,210.117035 430.981110,210.066711 424.526093,209.698547 
	C421.934601,209.550720 419.915009,207.956711 419.946442,204.730911 
	C420.025757,196.585083 419.844055,188.433807 420.111694,180.296036 
	C420.149353,179.150543 422.085388,177.145782 423.199249,177.105591 
	C430.972748,176.824997 438.761108,176.957230 447.064758,176.957230 
	C447.064758,183.636093 447.064758,190.060547 447.064758,196.980530 
z"/>
<path fill="#000000" opacity="1.000000" stroke="none" 
	d="
M296.646362,401.923950 
	C302.142303,402.526337 306.154938,404.874817 307.890778,409.733307 
	C309.926636,415.431458 310.155334,421.268524 306.082428,426.321747 
	C305.343933,427.238007 303.337921,427.063873 301.982300,427.568329 
	C300.160309,428.246338 297.387512,428.641571 296.801727,429.952820 
	C294.871063,434.274475 291.239105,433.740295 288.484772,432.700745 
	C280.031555,429.510284 277.254822,424.093933 278.079590,413.557922 
	C278.570282,407.289581 283.590271,401.090729 292.722412,401.970215 
	C293.869659,402.080688 295.040527,401.945465 296.646362,401.923950 
z"/>
<path fill="#000000" opacity="1.000000" stroke="none" 
	d="
M581.066406,408.851929 
	C579.005981,414.679810 569.539917,418.160492 564.570557,415.176392 
	C563.738647,414.676819 563.082825,413.261414 563.016418,412.226166 
	C562.815247,409.091034 562.943665,405.934753 562.943665,402.752808 
	C567.671814,399.658661 572.712708,400.784546 577.301758,402.325500 
	C579.044678,402.910797 579.840332,406.316925 581.066406,408.851929 
z"/>
<path fill="#000000" opacity="1.000000" stroke="none" 
	d="
M442.568542,415.791199 
	C433.473267,416.082886 432.892487,415.071228 434.357849,401.918488 
	C438.049286,401.918488 441.788025,402.002625 445.521210,401.894409 
	C449.129303,401.789856 451.167877,403.111725 451.113403,407.009766 
	C451.059265,410.882446 451.099976,414.685669 445.795380,415.068176 
	C444.844666,415.136719 443.909515,415.421295 442.568542,415.791199 
z"/>
<path fill="#000000" opacity="1.000000" stroke="none" 
	d="
M391.326080,423.047913 
	C390.473724,421.952515 389.468384,420.644409 389.767365,419.795746 
	C391.043945,416.172028 392.705780,412.683960 394.493011,408.528015 
	C396.903046,413.513397 399.074463,418.005188 401.511536,423.046539 
	C397.687744,423.046539 394.730438,423.046539 391.326080,423.047913 
z"/>
<path fill="#000000" opacity="1.000000" stroke="none" 
	d="
M485.972931,167.935501 
	C483.276978,167.975586 480.581055,168.015656 477.192627,168.051666 
	C476.334137,168.100052 476.168152,168.152512 476.002197,168.204971 
	C475.248932,168.154053 474.495667,168.103149 473.002319,168.041656 
	C471.512024,168.086945 470.761810,168.142792 470.011566,168.198654 
	C468.944550,168.144943 467.877533,168.091232 466.299438,167.692795 
	C465.448547,166.562836 465.108765,165.777618 464.768951,164.992401 
	C464.826294,160.963470 464.883636,156.934525 464.939880,152.202911 
	C464.886719,151.337067 464.834717,151.173920 464.782715,151.010788 
	C464.834564,150.257019 464.886414,149.503250 464.944763,147.935577 
	C464.889221,144.412094 464.827209,141.702530 464.765228,138.992966 
	C464.817596,138.544708 464.869934,138.096466 464.920563,137.073883 
	C464.864288,136.337860 464.809692,136.176147 464.755066,136.014450 
	C464.815948,135.569489 464.876801,135.124527 465.442383,134.313324 
	C470.757263,133.963226 475.571930,133.857651 480.376068,134.035812 
	C483.923187,134.167343 487.456635,134.668854 490.996155,135.005524 
	C491.022217,139.514709 491.048248,144.023895 491.072479,149.254608 
	C491.128113,150.596497 491.185577,151.216858 491.160095,152.100220 
	C491.132416,152.906265 491.187714,153.449295 491.156067,154.324554 
	C491.126984,155.107330 491.184845,155.557846 491.242737,156.008362 
	C491.178101,158.703247 491.113464,161.398117 490.677246,164.687637 
	C488.861389,166.166687 487.417145,167.051086 485.972931,167.935501 
z"/>
<path fill="#000000" opacity="1.000000" stroke="none" 
	d="
M464.855225,180.365112 
	C464.832886,179.556290 464.896454,179.119904 465.416046,178.189941 
	C472.667755,177.452499 479.464600,177.040421 486.258362,177.085632 
	C487.911621,177.096634 489.554871,178.610901 491.206238,179.410339 
	C491.209778,179.386703 491.219391,179.430023 491.219391,179.430023 
	C491.179260,187.646286 491.139160,195.862564 491.086609,204.901077 
	C489.703979,207.115753 488.333710,208.508163 486.963440,209.900574 
	C485.254608,209.949005 483.545746,209.997452 480.978516,210.038727 
	C477.748260,210.087204 475.376404,210.142822 473.004547,210.198456 
	C471.291687,210.144348 469.578857,210.090225 467.334473,209.709290 
	C466.202972,209.252762 465.602966,209.123077 465.002960,208.993393 
	C464.975403,208.239517 464.947845,207.485641 464.933655,205.970764 
	C464.888702,204.144669 464.830414,203.079544 464.772095,202.014435 
	C464.824768,200.288147 464.877441,198.561874 464.940430,195.955261 
	C464.895599,191.054642 464.840454,187.034348 464.785339,183.014053 
	C464.837250,182.255219 464.889160,181.496384 464.855225,180.365112 
z"/>
<path fill="#F4F3EF" opacity="1.000000" stroke="none" 
	d="
M491.254578,135.013611 
	C487.456635,134.668854 483.923187,134.167343 480.376068,134.035812 
	C475.571930,133.857651 470.757263,133.963226 465.480042,133.976715 
	C464.687714,133.533096 464.362457,133.059830 464.019836,132.283234 
	C473.024078,131.983231 482.045746,131.986557 491.536743,131.992920 
	C492.008514,132.747467 492.010956,133.498978 492.021545,134.626190 
	C491.857483,135.008499 491.685242,135.015091 491.254578,135.013611 
z"/>
<path fill="#FAF8F6" opacity="1.000000" stroke="none" 
	d="
M490.996460,174.991882 
	C490.766418,173.234848 490.536407,171.477814 490.482422,169.366409 
	C491.106842,169.010452 491.555237,169.008865 492.003662,169.007278 
	C493.049530,170.704727 494.095428,172.402176 495.667053,174.952850 
	C494.794708,175.965729 493.398407,177.586929 491.610779,179.319061 
	C491.219391,179.430023 491.209778,179.386703 491.413727,179.052155 
	C491.410583,177.475693 491.203522,176.233795 490.996460,174.991882 
z"/>
<path fill="#F4F3EF" opacity="1.000000" stroke="none" 
	d="
M487.194550,210.195190 
	C488.333710,208.508163 489.703979,207.115753 491.168671,205.353394 
	C491.263123,204.983475 491.652130,204.975540 491.838440,205.339020 
	C492.680328,206.801575 493.335938,207.900635 493.991577,208.999680 
	C492.951691,214.558182 489.590027,209.886169 487.194550,210.195190 
z"/>
<path fill="#FAF8F6" opacity="1.000000" stroke="none" 
	d="
M491.643616,156.004089 
	C491.184845,155.557846 491.126984,155.107330 491.464111,154.251251 
	C491.653778,153.176193 491.448395,152.506699 491.243042,151.837204 
	C491.185577,151.216858 491.128113,150.596497 491.156128,149.673737 
	C492.487213,150.124222 494.504211,150.646973 494.812317,151.679611 
	C495.392456,153.623901 495.493561,156.202301 491.643616,156.004089 
z"/>
<path fill="#F4F3EF" opacity="1.000000" stroke="none" 
	d="
M492.009125,168.638306 
	C491.555237,169.008865 491.106842,169.010452 490.321960,169.020844 
	C488.796783,168.855148 487.608093,168.680664 486.196167,168.220825 
	C487.417145,167.051086 488.861389,166.166687 490.646240,165.136444 
	C491.329437,166.083511 491.671997,167.176437 492.009125,168.638306 
z"/>
<path fill="#FAF8F6" opacity="1.000000" stroke="none" 
	d="
M494.349579,208.931763 
	C493.335938,207.900635 492.680328,206.801575 492.032288,205.355255 
	C494.508820,205.200333 497.904053,204.751846 494.349579,208.931763 
z"/>
<path fill="#F4F3EF" opacity="1.000000" stroke="none" 
	d="
M473.299164,210.439224 
	C475.376404,210.142822 477.748260,210.087204 480.557587,210.115875 
	C478.527954,210.360123 476.060883,210.520065 473.299164,210.439224 
z"/>
<path fill="#FAF8F6" opacity="1.000000" stroke="none" 
	d="
M464.001221,211.013351 
	C463.575897,211.513153 463.150574,212.012970 462.725250,212.512772 
	C462.921875,211.705856 463.118500,210.898956 463.650940,210.294556 
	C463.991577,210.669159 463.996399,210.841248 464.001221,211.013351 
z"/>
<path fill="#F4F3EF" opacity="1.000000" stroke="none" 
	d="
M464.342651,211.010925 
	C463.996399,210.841248 463.991577,210.669159 463.972778,210.238953 
	C464.074554,209.658035 464.270355,209.394775 464.774597,209.092224 
	C465.602966,209.123077 466.202972,209.252762 466.906555,209.677460 
	C466.234772,210.317825 465.459412,210.663162 464.342651,211.010925 
z"/>
<path fill="#F4F3EF" opacity="1.000000" stroke="none" 
	d="
M461.242798,206.831940 
	C461.136719,206.354858 461.274628,205.710587 461.703217,205.036163 
	C461.824860,205.558929 461.655823,206.111847 461.242798,206.831940 
z"/>
<path fill="#F4F3EF" opacity="1.000000" stroke="none" 
	d="
M464.566040,202.206146 
	C464.830414,203.079544 464.888702,204.144669 464.856201,205.601379 
	C464.510254,205.520782 464.255157,205.048584 463.977448,204.298340 
	C464.089874,203.479492 464.224915,202.938675 464.566040,202.206146 
z"/>
<path fill="#FBFDFD" opacity="1.000000" stroke="none" 
	d="
M463.953674,167.981216 
	C462.703278,167.621628 461.452881,167.262039 460.202454,166.902451 
	C460.234528,166.509796 460.266602,166.117142 460.298645,165.724503 
	C461.273102,165.485458 462.247528,165.246414 463.598755,165.381821 
	C463.968262,166.497910 463.960968,167.239563 463.953674,167.981216 
z"/>
<path fill="#F4F3EF" opacity="1.000000" stroke="none" 
	d="
M464.560699,138.996826 
	C464.827209,141.702530 464.889221,144.412094 464.864990,147.564377 
	C464.778748,148.007095 464.369995,148.002182 464.174805,147.623505 
	C463.975067,146.502869 463.970551,145.760925 463.966034,145.018967 
	C463.974091,144.259232 463.982117,143.499496 463.985046,141.990692 
	C463.969208,140.502579 463.958527,139.763565 463.947815,139.024536 
	C463.947815,139.024536 464.356201,139.000671 464.560699,138.996826 
z"/>
<path fill="#FBFDFD" opacity="1.000000" stroke="none" 
	d="
M463.620239,139.069595 
	C463.958527,139.763565 463.969208,140.502579 463.972778,141.610931 
	C463.741302,141.025055 463.516998,140.069855 463.620239,139.069595 
z"/>
<path fill="#FBFDFD" opacity="1.000000" stroke="none" 
	d="
M463.636719,145.064453 
	C463.970551,145.760925 463.975067,146.502869 463.970581,147.615662 
	C463.743469,147.027649 463.525452,146.068802 463.636719,145.064453 
z"/>
<path fill="#F4F3EF" opacity="1.000000" stroke="none" 
	d="
M464.109406,168.209259 
	C463.960968,167.239563 463.968262,166.497910 463.965271,165.385590 
	C463.955017,165.014938 464.361694,164.992798 464.565308,164.992599 
	C465.108765,165.777618 465.448547,166.562836 465.898468,167.664276 
	C465.427429,168.132767 464.846283,168.285034 464.109406,168.209259 
z"/>
<path fill="#F4F3EF" opacity="1.000000" stroke="none" 
	d="
M470.200378,168.407532 
	C470.761810,168.142792 471.512024,168.086945 472.630737,168.117126 
	C472.874695,168.480988 472.680084,168.694992 472.211823,168.928558 
	C471.468628,168.880096 470.928925,168.748245 470.200378,168.407532 
z"/>
<path fill="#F4F3EF" opacity="1.000000" stroke="none" 
	d="
M460.638245,131.097336 
	C460.364807,130.827988 460.252441,130.428375 460.196381,130.021027 
	C460.186768,129.951111 460.417114,129.848190 460.536621,129.760529 
	C460.630554,130.161850 460.724487,130.563156 460.638245,131.097336 
z"/>
<path fill="#F4F3EF" opacity="1.000000" stroke="none" 
	d="
M464.643311,151.104843 
	C464.834717,151.173920 464.886719,151.337067 464.860840,151.744949 
	C464.689911,151.726089 464.596924,151.462494 464.643311,151.104843 
z"/>
<path fill="#F4F3EF" opacity="1.000000" stroke="none" 
	d="
M464.617737,136.108185 
	C464.809692,136.176147 464.864288,136.337860 464.839233,136.742859 
	C464.391479,136.802399 464.298431,136.541000 464.617737,136.108185 
z"/>
<path fill="#F4F3EF" opacity="1.000000" stroke="none" 
	d="
M464.539490,183.337311 
	C464.840454,187.034348 464.895599,191.054642 464.862549,195.529663 
	C464.614136,191.876465 464.453918,187.768524 464.539490,183.337311 
z"/>
<path fill="#F4F3EF" opacity="1.000000" stroke="none" 
	d="
M490.528168,174.993896 
	C491.203522,176.233795 491.410583,177.475693 491.410217,179.075790 
	C489.554871,178.610901 487.911621,177.096634 486.258362,177.085632 
	C479.464600,177.040421 472.667755,177.452499 465.481659,177.863831 
	C462.593781,174.509048 465.605652,175.048264 467.417328,175.030975 
	C474.964264,174.959061 482.512268,174.997757 490.528168,174.993896 
z"/>
<path fill="#F4F3EF" opacity="1.000000" stroke="none" 
	d="
M476.097015,168.348083 
	C476.168152,168.152512 476.334137,168.100052 476.748901,168.127090 
	C476.729034,168.301468 476.460419,168.396332 476.097015,168.348083 
z"/>
<path fill="#FBFDFD" opacity="1.000000" stroke="none" 
	d="
M491.160065,152.100220 
	C491.448395,152.506699 491.653778,153.176193 491.551086,153.918991 
	C491.187714,153.449295 491.132416,152.906265 491.160065,152.100220 
z"/>
</svg>